SplineFontDB: 3.0
FontName: Hurly-Burly
FullName: Hurly-Burly
FamilyName: Hurly-Burly
Weight: Regular
Copyright: Copyright (c) 2015, Sean
UComments: "2015-11-2: Created with FontForge (http://fontforge.org)"
Version: 002.000
ItalicAngle: 0
UnderlinePosition: -102.4
UnderlineWidth: 51.2
Ascent: 819
Descent: 205
InvalidEm: 0
LayerCount: 2
Layer: 0 0 "Back" 1
Layer: 1 0 "Fore" 0
XUID: [1021 588 -1718619216 6540]
StyleMap: 0x0000
FSType: 0
OS2Version: 0
OS2_WeightWidthSlopeOnly: 0
OS2_UseTypoMetrics: 1
CreationTime: 1446508702
ModificationTime: 1446512971
PfmFamily: 17
TTFWeight: 400
TTFWidth: 5
LineGap: 92
VLineGap: 92
OS2TypoAscent: 0
OS2TypoAOffset: 1
OS2TypoDescent: 0
OS2TypoDOffset: 1
OS2TypoLinegap: 92
OS2WinAscent: 0
OS2WinAOffset: 1
OS2WinDescent: 0
OS2WinDOffset: 1
HheadAscent: 0
HheadAOffset: 1
HheadDescent: 0
HheadDOffset: 1
OS2Vendor: 'PfEd'
MarkAttachClasses: 1
DEI: 91125
LangName: 1033
Encoding: ISO8859-1
UnicodeInterp: none
NameList: AGL For New Fonts
DisplaySize: -72
AntiAlias: 1
FitToEm: 0
WidthSeparation: 64
WinInfo: 0 26 10
BeginPrivate: 0
EndPrivate
TeXData: 1 0 0 346030 173015 115343 283599 1048576 115343 783286 444596 497025 792723 393216 433062 380633 303038 157286 324010 404750 52429 2506097 1059062 262144
BeginChars: 256 111

StartChar: uni0000
Encoding: 0 0 0
Width: 397
VWidth: -19
Flags: HW
HStem: -119 131<154.555 245.812> 321 112<177.474 260.209>
VStem: 133 135<-107.228 -10.6774> 269 101<226.159 311.487>
LayerCount: 2
Fore
SplineSet
200 12 m 0
 238 12 268 -29 268 -65 c 0
 268 -94 249 -119 201 -119 c 0
 152 -119 133 -92 133 -63 c 0
 133 -27 162 12 200 12 c 0
55 243 m 0
 49 252 26 289 26 329 c 0
 26 380 63 433 222 433 c 0
 329 433 370 368 370 298 c 0
 370 229 329 154 272 137 c 0
 243 128 246 81 240 69 c 0
 234 57 213 51 193 51 c 0
 174 51 156 56 151 67 c 0
 148 73 146 84 146 99 c 0
 146 138 161 196 222 211 c 0
 250 218 269 247 269 273 c 0
 269 293 258 311 232 318 c 0
 224 320 217 321 211 321 c 0
 167 321 171 273 156 261 c 0
 143 251 103 235 76 235 c 0
 66 235 59 238 55 243 c 0
EndSplineSet
Validated: 1
EndChar

StartChar: zero
Encoding: 48 48 1
Width: 537
VWidth: -12
Flags: HW
HStem: -106 137<208.661 323.939> 347 117<204.923 326.445>
VStem: 26 127<94.2894 221.73> 379 131<80.8754 275.997>
LayerCount: 2
Fore
SplineSet
265 464 m 0
 415 464 510 301 510 149 c 0
 510 17 439 -106 271 -106 c 0
 99 -106 26 22 26 157 c 0
 26 306 117 464 265 464 c 0
265 347 m 0
 236 347 213 335 195 317 c 1
 221 297 259 260 304 215 c 0
 330 189 354 164 373 144 c 1
 376 160 379 177 379 193 c 0
 379 271 342 347 265 347 c 0
265 31 m 0
 289 31 309 40 326 54 c 1
 306 72 275 101 233 143 c 0
 199 177 173 205 155 224 c 1
 154 214 153 204 153 193 c 0
 153 113 191 31 265 31 c 0
EndSplineSet
Validated: 1
EndChar

StartChar: one
Encoding: 49 49 2
Width: 429
VWidth: -13
Flags: HW
HStem: -103 105<61.3745 152.21 299.517 390.265> 442 20G<197.5 229.5>
VStem: 48 355<-96.3359 1.7151> 131 190<28.3348 256>
LayerCount: 2
Fore
SplineSet
393 2 m 0xd0
 400 -4 403 -15 403 -27 c 0
 403 -56 387 -95 375 -103 c 0
 369 -108 303 -112 226 -112 c 0
 149 -112 83 -108 77 -103 c 0
 65 -95 48 -56 48 -27 c 0xe0
 48 -15 51 -4 58 2 c 0
 66 10 116 14 154 16 c 1
 141 104 134 186 131 256 c 1
 120 250 109 245 97 239 c 0
 95 238 93 238 91 238 c 0
 67 238 25 294 25 329 c 0
 25 336 26 342 30 346 c 0
 56 380 115 435 148 452 c 0
 161 458 185 462 210 462 c 0
 249 462 290 454 302 439 c 0
 314 423 321 372 321 298 c 0
 321 225 314 128 297 16 c 1
 336 14 385 10 393 2 c 0xd0
EndSplineSet
Validated: 1
EndChar

StartChar: two
Encoding: 50 50 3
Width: 442
VWidth: -12
Flags: HW
HStem: -99 131<213.025 383.616> 325 133<188.007 255.882>
VStem: 26 137<248.142 304.502> 36 378<-81.4174 14.5298> 256 158<247.428 372>
LayerCount: 2
Fore
SplineSet
412 302 m 0xe8
 397 173 248 60 213 29 c 2
 213 29 247 32 287 32 c 0
 331 32 382 28 402 15 c 0
 410 10 414 0 414 -12 c 0
 414 -41 396 -82 384 -90 c 0
 377 -95 293 -99 215 -99 c 0
 137 -99 70 -95 63 -90 c 0
 51 -82 36 -50 36 -19 c 0xd0
 36 -7 38 5 44 15 c 0
 60 45 256 232 256 300 c 0
 256 316 246 325 221 325 c 0
 219 325 217 325 215 325 c 0
 172 323 185 272 163 254 c 0
 150 244 118 238 87 238 c 0
 65 238 45 242 33 248 c 0
 29 251 26 256 26 265 c 0
 26 312 86 432 188 451 c 4
 212 455 236 458 258 458 c 0
 348 458 414 418 414 326 c 0
 414 318 413 310 412 302 c 0xe8
EndSplineSet
Validated: 1
EndChar

StartChar: three
Encoding: 51 51 4
Width: 428
VWidth: -12
Flags: HW
HStem: -106 154<83.3589 225> 300 165<106.915 210.943>
VStem: 213 186<228.673 297.53>
LayerCount: 2
Fore
SplineSet
352 388 m 0
 385 344 399 306 399 274 c 0
 399 214 350 176 303 164 c 1
 348 156 401 122 401 64 c 0
 401 32 385 -7 342 -51 c 0
 301 -93 250 -106 200 -106 c 0
 132 -106 67 -80 44 -65 c 0
 30 -55 25 -39 25 -21 c 0
 25 15 46 57 70 63 c 0
 73 64 77 65 80 65 c 0
 104 65 141 48 166 48 c 0
 181 48 192 55 192 75 c 0
 192 133 105 100 89 120 c 0
 83 128 80 142 80 158 c 0
 80 182 87 210 93 216 c 0
 96 219 104 220 116 220 c 0
 121 220 126 220 132 220 c 0
 167 220 213 222 213 264 c 0
 213 292 195 300 173 300 c 0
 144 300 106 286 89 285 c 0
 88 285 89 285 88 285 c 0
 66 285 35 337 35 376 c 0
 35 391 39 405 51 413 c 0
 84 435 143 465 206 465 c 0
 256 465 308 445 352 388 c 0
EndSplineSet
Validated: 1
EndChar

StartChar: four
Encoding: 52 52 5
Width: 502
VWidth: -12
Flags: HW
HStem: -107 21G<349.5 373> 445 20G<96.5 124> 445 20G<96.5 124>
VStem: 27 190<228 349.456> 291 183<229.912 335.25>
LayerCount: 2
Fore
SplineSet
465 431 m 0xb8
 471 426 474 403 474 365 c 0
 474 273 454 98 399 -95 c 0
 396 -104 382 -107 364 -107 c 0
 335 -107 295 -97 287 -88 c 0
 275 -74 259 45 259 45 c 1
 259 45 230 36 194 36 c 0
 146 36 85 51 61 119 c 0
 36 189 27 281 27 349 c 0
 27 395 31 430 39 440 c 0
 51 457 82 465 111 465 c 0xd8
 137 465 162 458 170 445 c 0
 187 416 217 228 217 228 c 1
 291 224 l 1
 291 224 330 445 352 451 c 0
 358 453 367 454 376 454 c 0
 408 454 451 444 465 431 c 0xb8
EndSplineSet
Validated: 1
EndChar

StartChar: five
Encoding: 53 53 6
Width: 484
VWidth: -12
Flags: HW
HStem: -106 115<165.1 294.097> 326 139<182.388 395.896>
VStem: 28 144<242.914 367.5> 316 120<31.8178 122.934>
LayerCount: 2
Fore
SplineSet
187 323 m 0
 178 313 172 293 172 275 c 0
 172 263 175 250 180 244 c 0
 192 229 436 285 436 58 c 0
 436 -55 377 -106 201 -106 c 0
 48 -106 27 14 27 54 c 0
 27 60 27 64 28 66 c 0
 33 80 65 86 94 86 c 0
 118 86 141 82 147 76 c 0
 159 64 142 9 220 9 c 0
 229 9 238 11 250 12 c 0
 294 18 316 49 316 79 c 0
 316 108 294 136 252 136 c 0
 191 136 128 128 90 128 c 0
 75 128 63 129 58 133 c 0
 46 143 28 262 28 348 c 0
 28 387 31 419 41 430 c 0
 61 452 226 465 341 465 c 0
 399 465 444 461 451 455 c 0
 456 451 458 440 458 428 c 0
 458 386 435 315 412 303 c 0
 408 300 401 300 392 300 c 0
 344 300 240 326 201 326 c 0
 194 326 189 325 187 323 c 0
EndSplineSet
Validated: 1
EndChar

StartChar: six
Encoding: 54 54 7
Width: 423
VWidth: -12
Flags: HW
HStem: -104 129<153.428 252.532> 183 96<184.5 292> 442 20G<220.5 258>
VStem: 26 112<39.897 156.462> 266 131<38.9144 159.321>
LayerCount: 2
Fore
SplineSet
26 78 m 0
 26 180 114 423 142 443 c 0
 157 453 201 462 240 462 c 0
 276 462 308 455 308 437 c 0
 308 424 217 276 217 276 c 1
 227 278 235 279 244 279 c 0
 340 279 397 184 397 89 c 0
 397 -7 339 -104 206 -104 c 0
 72 -104 26 -24 26 78 c 0
203 25 m 0
 249 25 266 57 266 92 c 0
 266 135 239 183 203 183 c 0
 166 183 138 135 138 92 c 0
 138 57 157 25 203 25 c 0
EndSplineSet
Validated: 1
EndChar

StartChar: seven
Encoding: 55 55 8
Width: 536
VWidth: -12
Flags: HW
HStem: 283 183<47.7643 253.768>
VStem: 26 483<303.43 408.897>
LayerCount: 2
Fore
SplineSet
507 356 m 0
 506 350 505 344 503 338 c 0
 481 257 379 83 252 -100 c 0
 248 -106 237 -109 224 -109 c 0
 188 -109 134 -90 134 -65 c 0
 134 -63 134 -62 134 -60 c 0
 174 78 218 197 256 283 c 1
 243 283 231 283 219 283 c 0
 121 283 49 294 36 308 c 0
 29 315 26 330 26 349 c 0
 26 389 40 442 55 453 c 0
 66 462 95 466 139 466 c 0
 220 466 348 449 495 409 c 0
 504 407 509 392 509 374 c 0
 509 368 508 362 507 356 c 0
EndSplineSet
Validated: 1
EndChar

StartChar: eight
Encoding: 56 56 9
Width: 454
VWidth: -12
Flags: HW
HStem: -106 116<165.697 280.107> 153 127<186.328 261.883> 362 102<191.123 256.415>
VStem: 25 127<23.6297 128.314> 63 121<283.075 354.452> 265 125<282.838 355.405> 296 132<25.0877 127.401>
LayerCount: 2
Fore
SplineSet
350 207 m 1xec
 398 165 428 103 428 45 c 0
 428 -34 371 -106 228 -106 c 0
 82 -106 25 -31 25 50 c 0xf2
 25 108 55 169 102 210 c 1
 75 233 63 264 63 297 c 0
 63 376 132 464 225 464 c 0
 319 464 390 374 390 294 c 0
 390 261 378 229 350 207 c 1xec
225 362 m 0
 202 362 184 337 184 315 c 0
 184 297 196 280 225 280 c 0
 254 280 265 296 265 314 c 0xec
 265 336 248 362 225 362 c 0
224 10 m 0
 276 10 296 39 296 71 c 0
 296 110 265 153 224 153 c 0
 183 153 152 110 152 71 c 0xf2
 152 39 172 10 224 10 c 0
EndSplineSet
Validated: 1
EndChar

StartChar: nine
Encoding: 57 57 10
Width: 424
VWidth: -11
Flags: HW
HStem: 79 96<130 238.5> 333 129<169.273 269.293>
VStem: 26 130<199.65 319.255> 284 113<201.753 318.762>
LayerCount: 2
Fore
SplineSet
397 280 m 0
 397 178 308 -65 280 -85 c 0
 265 -95 222 -104 183 -104 c 0
 147 -104 115 -97 115 -79 c 0
 115 -66 206 82 206 82 c 1
 196 80 187 79 178 79 c 0
 82 79 26 174 26 269 c 0
 26 365 83 462 216 462 c 0
 350 462 397 382 397 280 c 0
220 333 m 0
 174 333 156 302 156 267 c 0
 156 224 184 175 220 175 c 0
 257 175 284 224 284 267 c 0
 284 302 266 333 220 333 c 0
EndSplineSet
Validated: 1
EndChar

StartChar: colon
Encoding: 58 58 11
Width: 248
VWidth: 29
Flags: HW
HStem: -95 162<71.2988 174.327> 174 190<67.4551 177.841>
VStem: 26 195<200.171 318.404> 40 168<-75.6586 33.4591>
LayerCount: 2
Fore
SplineSet
122 364 m 0xe0
 178 364 221 305 221 253 c 0
 221 212 194 174 125 174 c 0
 55 174 26 213 26 255 c 0
 26 306 67 364 122 364 c 0xe0
122 67 m 0
 170 67 208 18 208 -27 c 0
 208 -63 185 -95 125 -95 c 0
 64 -95 40 -62 40 -26 c 0xd0
 40 18 74 67 122 67 c 0
EndSplineSet
Validated: 1
EndChar

StartChar: semicolon
Encoding: 59 59 12
Width: 248
VWidth: 31
Flags: HW
HStem: 174 190<67.4551 177.841>
VStem: 26 195<200.171 318.404>
LayerCount: 2
Fore
SplineSet
122 364 m 0
 178 364 221 305 221 253 c 0
 221 212 194 174 125 174 c 0
 55 174 26 213 26 255 c 0
 26 306 67 364 122 364 c 0
110 -82 m 0
 100 -91 90 -95 82 -95 c 0
 60 -95 49 -62 49 -34 c 0
 49 -23 49 -11 53 -6 c 0
 69 16 124 73 135 74 c 0
 153 74 199 39 199 24 c 0
 199 23 l 0
 198 8 165 -34 110 -82 c 0
EndSplineSet
Validated: 1
EndChar

StartChar: less
Encoding: 60 60 13
Width: 422
VWidth: -12
Flags: HW
VStem: 26 193<129.345 218.281>
LayerCount: 2
Fore
SplineSet
352 -100 m 0
 299 -100 27 39 26 165 c 0
 26 166 l 0
 26 225 70 282 106 319 c 0
 172 386 288 459 346 459 c 0
 365 459 376 451 382 445 c 0
 390 436 395 425 395 415 c 0
 395 383 360 348 317 305 c 0
 279 265 219 205 219 173 c 0
 219 142 267 98 305 62 c 0
 351 19 391 -18 391 -59 c 0
 391 -64 390 -68 389 -73 c 0
 386 -86 375 -100 352 -100 c 0
EndSplineSet
Validated: 1
EndChar

StartChar: greater
Encoding: 62 62 14
Width: 421
VWidth: -11
Flags: HW
LayerCount: 2
Fore
SplineSet
68 -100 m 0
 45 -100 34 -86 31 -73 c 0
 30 -68 29 -64 29 -59 c 0
 29 -18 69 19 115 62 c 0
 153 98 201 141 201 173 c 0
 201 174 l 0
 201 206 143 266 104 305 c 0
 62 348 26 383 26 415 c 0
 26 425 30 436 38 445 c 0
 44 452 56 459 75 459 c 0
 133 459 248 385 314 319 c 0
 351 282 394 226 394 167 c 0
 394 165 l 0
 393 39 121 -100 68 -100 c 0
EndSplineSet
Validated: 1
EndChar

StartChar: equal
Encoding: 61 61 15
Width: 541
VWidth: -12
Flags: HW
HStem: 48 106<101.786 438.214> 174 136<72.5112 467.489>
LayerCount: 2
Fore
SplineSet
497 294 m 0
 508 287 512 277 512 264 c 0
 512 233 487 192 468 183 c 0
 458 179 390 174 270 174 c 0
 150 174 82 179 72 183 c 0
 53 192 28 233 28 264 c 0
 28 277 32 287 43 294 c 0
 63 306 151 310 270 310 c 0
 389 310 477 306 497 294 c 0
270 154 m 0
 362 154 430 151 445 141 c 0
 453 136 457 128 457 118 c 0
 457 94 437 62 423 55 c 0
 415 51 363 48 270 48 c 0
 177 48 125 51 117 55 c 0
 103 62 83 94 83 118 c 0
 83 128 87 136 95 141 c 0
 110 151 178 154 270 154 c 0
EndSplineSet
Validated: 1
EndChar

StartChar: A
Encoding: 65 65 16
Width: 880
VWidth: 0
Flags: HW
HStem: 758 20G<418 479>
LayerCount: 2
Fore
SplineSet
578 755 m 0
 605 724 854 -17 854 -127 c 0
 854 -134 853 -138 851 -140 c 0
 833 -155 762 -163 694 -163 c 0
 630 -163 568 -156 554 -140 c 0
 524 -106 491 107 491 107 c 1
 397 108 l 1
 397 108 365 -122 327 -140 c 0
 305 -150 217 -160 141 -160 c 0
 85 -160 37 -155 26 -140 c 0
 25 -138 24 -135 24 -130 c 0
 24 -29 266 731 299 755 c 0
 319 769 386 778 450 778 c 0
 508 778 564 770 578 755 c 0
379 322 m 1
 504 313 l 1
 504 313 475 541 449 541 c 0
 448 541 l 0
 422 535 379 322 379 322 c 1
EndSplineSet
Validated: 1
EndChar

StartChar: B
Encoding: 66 66 17
Width: 712
VWidth: 0
Flags: HW
HStem: -163 172<265.5 461.591> 195 221<306.297 441.543> 589 189<203 416.252>
VStem: 25 272<427.45 581.344> 460 160<437.252 550.9> 504 182<54.0479 150.85>
LayerCount: 2
Fore
SplineSet
517 305 m 1xf8
 578 301 678 268 685 91 c 0
 685 87 686 84 686 80 c 0xf4
 686 -111 483 -163 319 -163 c 0
 212 -163 122 -142 117 -122 c 0
 52 135 25 388 25 555 c 0
 25 658 35 728 53 745 c 0
 65 757 152 778 254 778 c 0
 400 778 577 734 611 553 c 0
 617 520 620 490 620 465 c 0
 620 347 559 314 517 305 c 1xf8
307 580 m 0
 300 572 297 537 297 502 c 0
 297 470 300 439 306 430 c 0
 311 422 336 416 365 416 c 0
 409 416 460 431 460 479 c 0xf8
 460 567 394 589 349 589 c 0
 328 589 311 585 307 580 c 0
331 17 m 0
 336 12 351 9 371 9 c 0
 423 9 504 31 504 99 c 0xf4
 504 103 503 106 503 110 c 0
 495 176 425 195 370 195 c 0
 339 195 312 189 306 183 c 0
 302 179 301 168 301 154 c 0
 301 110 317 32 331 17 c 0
EndSplineSet
Validated: 1
EndChar

StartChar: C
Encoding: 67 67 18
Width: 932
VWidth: 0
Flags: HW
HStem: -177 221<391.129 581.05> 523 268<404.599 636.607>
VStem: 25 274<172.465 408.095>
LayerCount: 2
Fore
SplineSet
141 649 m 0
 226 743 347 791 502 791 c 0
 654 791 759 759 853 685 c 0
 890 656 906 610 906 568 c 0
 906 550 902 533 897 517 c 0
 881 472 846 444 804 444 c 0
 789 444 772 448 756 455 c 0
 658 500 574 523 505 523 c 0
 301 523 299 318 299 309 c 0
 299 229 315 44 462 44 c 0
 516 44 576 64 630 81 c 0
 679 97 722 110 759 110 c 0
 818 110 855 74 859 11 c 0
 859 9 859 7 859 5 c 0
 859 -14 853 -41 828 -68 c 0
 761 -139 588 -177 451 -177 c 0
 202 -177 59 -18 27 294 c 0
 26 305 25 317 25 331 c 0
 25 415 49 547 141 649 c 0
EndSplineSet
Validated: 1
EndChar

StartChar: D
Encoding: 68 68 19
Width: 773
VWidth: 0
Flags: HW
HStem: -156 242<194.5 400.071> 512 259<235.5 396.651>
VStem: 27 262<94.9185 505.878> 514 230<210.132 400.345>
LayerCount: 2
Fore
SplineSet
734 373 m 0
 741 332 744 293 744 258 c 0
 744 -82 451 -156 246 -156 c 0
 143 -156 63 -138 51 -124 c 0
 35 -105 27 45 27 213 c 0
 27 432 40 682 62 713 c 0
 76 733 176 771 295 771 c 0
 468 771 682 692 734 373 c 0
304 506 m 0
 295 491 289 366 289 258 c 0
 289 180 291 111 298 97 c 0
 301 90 312 86 327 86 c 0
 386 86 514 146 514 316 c 0
 514 450 375 512 322 512 c 0
 312 512 306 510 304 506 c 0
EndSplineSet
Validated: 1
EndChar

StartChar: E
Encoding: 69 69 20
Width: 630
VWidth: 0
Flags: HW
HStem: -156 235<281.247 579.465> 529 241<211.5 514.429>
VStem: 26 239<89.3972 270.646 417.504 521.948>
LayerCount: 2
Fore
SplineSet
580 68 m 0
 596 55 604 9 604 -36 c 0
 604 -79 597 -122 582 -139 c 0
 572 -151 514 -156 441 -156 c 0
 296 -156 89 -135 69 -104 c 0
 42 -60 26 293 26 456 c 0
 26 470 26 482 26 493 c 0
 29 652 53 737 83 759 c 0
 93 766 168 770 255 770 c 0
 374 770 514 762 533 739 c 0
 549 720 555 669 555 621 c 0
 555 571 548 524 535 519 c 0
 531 518 524 517 513 517 c 0
 464 517 353 529 302 529 c 0
 288 529 280 528 277 526 c 0
 269 519 266 500 266 480 c 0
 266 457 270 433 278 423 c 0
 292 404 389 423 409 402 c 0
 418 393 421 369 421 344 c 0
 421 310 415 273 410 263 c 0
 408 259 402 258 394 258 c 0
 369 258 320 271 294 271 c 0
 287 271 282 270 279 268 c 0
 269 260 265 223 265 183 c 0
 265 140 270 94 281 83 c 0
 286 78 308 77 340 77 c 0
 382 77 438 79 486 79 c 0
 532 79 569 77 580 68 c 0
EndSplineSet
Validated: 1
EndChar

StartChar: F
Encoding: 70 70 21
Width: 584
VWidth: 0
Flags: HW
HStem: -158 21G<206 254> 530 243<213.5 515.224>
LayerCount: 2
Fore
SplineSet
281 268 m 0
 279 266 277 260 277 249 c 0
 277 186 314 -10 314 -99 c 0
 314 -120 311 -135 306 -141 c 0
 296 -153 270 -158 238 -158 c 0
 174 -158 89 -138 69 -106 c 0
 42 -62 26 293 26 457 c 0
 26 471 26 483 26 494 c 0
 29 654 53 739 83 761 c 0
 93 768 170 773 257 773 c 0
 377 773 516 764 535 741 c 0
 551 722 558 671 558 623 c 0
 558 573 550 525 537 520 c 0
 533 519 526 518 515 518 c 0
 465 518 355 530 304 530 c 0
 290 530 281 529 278 527 c 0
 270 520 267 501 267 481 c 0
 267 458 271 434 279 424 c 0
 293 405 391 423 411 402 c 0
 420 393 423 370 423 344 c 0
 423 310 417 274 412 263 c 0
 410 259 404 257 396 257 c 0
 371 257 322 271 296 271 c 0
 289 271 284 270 281 268 c 0
EndSplineSet
Validated: 1
EndChar

StartChar: G
Encoding: 71 71 22
Width: 814
VWidth: 0
Flags: HW
HStem: -156 230<351.877 533.686> 164 186<449.008 545.966> 527 243<345.932 607.003>
VStem: 26 235<201.952 432.556> 552 231<100.775 276>
LayerCount: 2
Fore
SplineSet
761 698 m 0
 780 683 787 659 787 632 c 0
 787 565 741 480 696 476 c 0
 694 476 691 476 689 476 c 0
 640 476 610 527 481 527 c 0
 454 527 423 524 386 519 c 0
 297 506 261 419 261 325 c 0
 261 214 311 94 383 81 c 0
 399 78 427 74 455 74 c 0
 503 74 552 86 552 141 c 0
 552 152 550 165 546 179 c 2
 546 179 499 164 465 164 c 0
 456 164 447 165 441 168 c 0
 426 175 415 210 415 247 c 0
 415 280 424 314 449 328 c 0
 474 342 540 350 606 350 c 0
 678 350 750 340 770 320 c 0
 779 310 783 290 783 262 c 0
 783 151 722 -64 703 -88 c 0
 688 -107 571 -156 438 -156 c 0
 259 -156 51 -67 28 303 c 0
 27 320 26 337 26 353 c 0
 26 685 250 770 452 770 c 0
 593 770 724 728 761 698 c 0
EndSplineSet
Validated: 1
EndChar

StartChar: H
Encoding: 72 72 23
Width: 870
VWidth: 0
Flags: HW
VStem: 24 372<393.494 511.687> 514 329<389.703 491.219>
LayerCount: 2
Fore
SplineSet
166 -118 m 0
 65 173 24 463 24 617 c 0
 24 673 29 711 39 725 c 0
 59 752 129 765 195 765 c 0
 254 765 309 755 322 733 c 0
 349 687 396 385 396 385 c 1
 514 379 l 1
 514 379 576 732 612 742 c 0
 623 745 638 747 656 747 c 0
 717 747 806 731 829 710 c 0
 838 702 843 665 843 605 c 0
 843 459 812 179 724 -131 c 0
 720 -145 697 -151 669 -151 c 0
 621 -151 557 -135 545 -121 c 0
 526 -99 500 92 500 92 c 1
 414 90 l 1
 414 90 385 -102 369 -119 c 0
 359 -130 294 -148 240 -148 c 0
 205 -148 174 -141 166 -118 c 0
EndSplineSet
Validated: 1
EndChar

StartChar: I
Encoding: 73 73 24
Width: 403
VWidth: 0
Flags: HW
HStem: -157 21G<193.5 239.5> 751 20G<134 193>
VStem: 25 350<188.599 700.066>
LayerCount: 2
Fore
SplineSet
97 -105 m 0
 44 119 25 338 25 499 c 0
 25 632 39 726 58 747 c 0
 74 764 112 771 156 771 c 0
 230 771 318 751 340 725 c 0
 362 699 375 617 375 495 c 0
 375 340 353 120 298 -127 c 0
 294 -147 259 -157 220 -157 c 0
 167 -157 105 -139 97 -105 c 0
EndSplineSet
Validated: 1
EndChar

StartChar: J
Encoding: 74 74 25
Width: 802
VWidth: 0
Flags: HW
HStem: -148 249<346.976 434.133>
VStem: 25 262<178.194 302.912> 484 289<165.891 451.612>
LayerCount: 2
Fore
SplineSet
50 307 m 0
 78 342 133 377 184 377 c 0
 231 377 274 347 287 261 c 0
 304 150 347 101 388 101 c 0
 437 101 484 170 484 283 c 0
 484 293 484 303 483 314 c 0
 468 522 412 543 412 645 c 0
 412 735 480 762 550 762 c 0
 606 762 663 745 684 728 c 0
 706 710 773 515 773 314 c 0
 773 87 689 -148 362 -148 c 0
 135 -148 25 70 25 212 c 0
 25 252 33 286 50 307 c 0
EndSplineSet
Validated: 1
EndChar

StartChar: K
Encoding: 75 75 26
Width: 810
VWidth: 0
Flags: HW
HStem: -154 922<123.329 292.469>
VStem: 25 348<514 698.161> 97 199<-129.126 -20.6805>
LayerCount: 2
Fore
SplineSet
518 315 m 1xc0
 671 159 784 -7 784 -46 c 0
 784 -96 662 -151 623 -151 c 0
 622 -151 621 -151 620 -151 c 0
 581 -147 471 -25 350 177 c 1
 338 84 320 -17 296 -124 c 0
 292 -144 258 -154 219 -154 c 0
 166 -154 105 -136 97 -102 c 0xa0
 45 120 25 338 25 498 c 0
 25 630 39 723 58 744 c 0
 74 761 112 768 155 768 c 0
 228 768 316 748 338 723 c 0
 359 699 372 623 373 514 c 1
 471 639 556 723 584 724 c 0
 585 724 l 0
 631 724 753 633 753 594 c 0
 753 556 659 439 518 315 c 1xc0
EndSplineSet
Validated: 1
EndChar

StartChar: L
Encoding: 76 76 27
Width: 743
VWidth: 0
Flags: HW
HStem: -153 326<309.197 598.59>
LayerCount: 2
Fore
SplineSet
106 733 m 0
 118 754 166 768 217 768 c 0
 279 768 345 747 357 692 c 0
 360 679 361 661 361 639 c 0
 361 491 302 173 302 173 c 1
 302 173 308 173 318 173 c 0
 384 173 636 169 676 118 c 0
 701 86 717 16 717 -44 c 0
 717 -95 705 -138 676 -142 c 0
 648 -146 530 -153 403 -153 c 0
 237 -153 56 -141 35 -92 c 0
 28 -76 25 -40 25 8 c 0
 25 225 83 694 106 733 c 0
EndSplineSet
Validated: 1
EndChar

StartChar: M
Encoding: 77 77 28
Width: 970
VWidth: 0
Flags: HW
VStem: 26 283<245.327 456.557> 681 259<232.074 426.43>
LayerCount: 2
Fore
SplineSet
148 684 m 0
 219 738 280 759 331 759 c 0
 428 759 488 683 507 607 c 1
 519 678 575 763 667 763 c 0
 718 763 780 737 851 668 c 0
 918 603 940 469 940 330 c 0
 940 139 898 -60 873 -97 c 0
 852 -128 790 -149 730 -149 c 0
 662 -149 596 -123 596 -56 c 0
 596 24 681 262 681 372 c 0
 681 407 672 428 650 428 c 0
 557 428 610 290 578 264 c 0
 566 254 543 250 518 250 c 0
 478 250 434 260 423 270 c 0
 419 274 418 288 418 306 c 0
 418 314 418 322 418 331 c 0
 418 387 414 462 347 462 c 0
 320 462 309 435 309 393 c 0
 309 278 386 51 386 -26 c 0
 386 -118 326 -149 261 -149 c 0
 198 -149 131 -120 109 -87 c 0
 73 -33 26 150 26 329 c 0
 26 473 56 615 148 684 c 0
EndSplineSet
Validated: 1
EndChar

StartChar: N
Encoding: 78 78 29
Width: 831
VWidth: 0
Flags: HW
HStem: -150 905<548.11 711.199> -143 908<109.284 274.174>
VStem: 25 282<196.8 300> 512 292<341.62 722.615>
LayerCount: 2
Fore
SplineSet
797 704 m 0xb0
 802 685 804 651 804 608 c 0
 804 382 747 -107 707 -136 c 0
 695 -145 660 -150 623 -150 c 0xb0
 576 -150 524 -142 508 -119 c 0
 479 -79 303 300 303 300 c 1
 303 300 307 238 307 157 c 0
 307 73 303 -32 288 -103 c 0
 283 -128 233 -143 186 -143 c 0
 144 -143 104 -131 98 -103 c 0
 46 132 25 361 25 522 c 0
 25 640 36 720 53 740 c 0
 68 757 105 765 146 765 c 0x70
 216 765 299 744 320 719 c 0
 377 677 548 257 548 257 c 1
 548 257 512 446 512 607 c 0
 512 650 514 691 521 726 c 0
 525 746 572 755 627 755 c 0
 701 755 789 738 797 704 c 0xb0
EndSplineSet
Validated: 1
EndChar

StartChar: O
Encoding: 79 79 30
Width: 865
VWidth: 0
Flags: HW
HStem: -148 292<344.164 504.064> 502 260<364.029 483.227>
VStem: 26 255<209.996 396.288> 571 265<209.928 388.121>
LayerCount: 2
Fore
SplineSet
426 762 m 0
 659 762 836 482 836 232 c 0
 836 32 723 -148 435 -148 c 0
 142 -148 26 38 26 242 c 0
 26 489 196 762 426 762 c 0
426 502 m 0
 343 502 281 393 281 295 c 0
 281 216 322 144 426 144 c 0
 530 144 571 216 571 295 c 0
 571 393 509 502 426 502 c 0
EndSplineSet
Validated: 1
EndChar

StartChar: P
Encoding: 80 80 31
Width: 807
VWidth: 0
Flags: HW
HStem: 160 177<294.211 486.453> 589 175<299.435 491.689>
VStem: 26 259<186.597 570.333> 547 233<396.7 537.399>
LayerCount: 2
Fore
SplineSet
294 162 m 1
 294 162 297 119 297 65 c 0
 297 -14 292 -114 266 -134 c 0
 252 -145 230 -150 205 -150 c 0
 154 -150 93 -129 71 -97 c 0
 49 -65 26 225 26 437 c 0
 26 538 31 622 44 652 c 0
 64 697 253 764 434 764 c 0
 604 764 768 705 780 511 c 0
 781 502 780 493 780 484 c 0
 780 190 473 160 347 160 c 0
 314 160 294 162 294 162 c 1
292 362 m 0
 297 351 341 337 392 337 c 0
 463 337 547 364 547 467 c 0
 547 564 469 589 400 589 c 0
 350 589 306 576 299 570 c 0
 290 561 285 500 285 446 c 0
 285 407 287 373 292 362 c 0
EndSplineSet
Validated: 1
EndChar

StartChar: Q
Encoding: 81 81 32
Width: 916
VWidth: 0
Flags: HW
HStem: -148 292<344.164 459.894> 502 260<364.029 483.131>
VStem: 26 255<209.996 396.288> 570 265<199 388.121>
LayerCount: 2
Fore
SplineSet
797 48 m 0
 858 -13 890 -63 890 -84 c 0
 890 -119 774 -150 729 -150 c 0
 722 -150 716 -150 712 -148 c 0
 700 -143 680 -131 651 -102 c 0
 594 -131 523 -148 435 -148 c 0
 142 -148 26 38 26 242 c 0
 26 489 196 762 426 762 c 0
 659 762 835 482 835 232 c 0
 835 166 823 104 797 48 c 0
426 144 m 0
 439 144 450 145 461 147 c 1
 458 152 455 155 452 160 c 0
 451 162 450 165 450 168 c 0
 450 194 503 243 537 243 c 0
 542 243 547 241 551 239 c 0
 554 237 558 235 561 233 c 1
 568 252 570 273 570 295 c 0
 570 393 509 502 426 502 c 0
 343 502 281 393 281 295 c 0
 281 216 322 144 426 144 c 0
EndSplineSet
Validated: 1
EndChar

StartChar: R
Encoding: 82 82 33
Width: 808
VWidth: 0
Flags: HW
HStem: -157 21G<568.5 598.5> 121 223<290 392> 596 176<299.435 493.044>
VStem: 26 259<193.745 577.583> 547 234<400.674 544.406>
LayerCount: 2
Fore
SplineSet
485 226 m 1
 485 226 759 52 759 -18 c 0
 759 -20 759 -22 759 -24 c 0
 743 -85 626 -157 571 -157 c 0
 566 -157 563 -157 559 -156 c 0
 511 -142 290 121 290 121 c 1
 290 121 294 75 294 22 c 0
 294 -39 289 -109 266 -127 c 0
 252 -138 230 -143 205 -143 c 0
 154 -143 93 -122 71 -90 c 0
 49 -58 26 233 26 445 c 0
 26 546 31 629 44 659 c 0
 64 704 253 772 434 772 c 0
 604 772 768 712 780 518 c 0
 781 503 781 489 781 476 c 0
 781 253 660 213 573 213 c 0
 523 213 485 226 485 226 c 1
292 369 m 0
 297 358 341 344 392 344 c 0
 463 344 547 372 547 475 c 0
 547 572 469 596 400 596 c 0
 350 596 306 583 299 577 c 0
 290 568 285 507 285 453 c 0
 285 414 287 380 292 369 c 0
EndSplineSet
Validated: 1
EndChar

StartChar: S
Encoding: 83 83 34
Width: 782
VWidth: 0
Flags: HW
HStem: -154 232<250.154 503.166> 171 191<264.85 489.366> 183 192<312.249 525.423> 467 21G<604.5 643.5> 467 21G<604.5 643.5> 510 259<289.813 515.649>
VStem: 24 233<373.588 594.308> 527 227<0.187607 174.79>
LayerCount: 2
Fore
SplineSet
257 410 m 0xd7
 257 373 286 362 329 362 c 0xd7
 378 362 447 375 514 375 c 0
 636 375 754 333 754 101 c 0
 754 -100 556 -154 372 -154 c 0
 238 -154 113 -125 78 -103 c 0
 57 -90 48 -57 48 -20 c 0
 48 45 77 123 127 123 c 0
 128 123 129 123 130 123 c 0
 179 120 316 78 415 78 c 0
 479 78 527 95 527 150 c 0
 527 176 505 183 470 183 c 0xa7
 425 183 358 171 290 171 c 0
 159 171 24 215 24 473 c 0
 24 709 230 769 414 769 c 0
 538 769 652 741 686 722 c 0
 710 708 722 676 722 637 c 0
 722 585 702 522 671 480 c 0
 665 471 652 467 635 467 c 0
 574 467 457 510 369 510 c 0
 305 510 257 488 257 410 c 0xd7
EndSplineSet
Validated: 1
EndChar

StartChar: T
Encoding: 84 84 35
Width: 859
VWidth: 0
Flags: HW
VStem: 24 809<596.193 730.998> 282 291<-107.363 404.423> 311 234<264.185 503>
LayerCount: 2
Fore
SplineSet
803 737 m 0x80
 824 724 833 702 833 677 c 0x80
 833 616 782 537 746 520 c 0
 731 513 686 506 545 503 c 1x20
 548 410 573 282 573 124 c 0
 573 48 567 -35 550 -124 c 0
 546 -144 503 -154 454 -154 c 0
 387 -154 309 -136 302 -101 c 0
 287 -27 282 44 282 112 c 0x40
 282 267 309 402 311 503 c 0x20
 170 506 126 512 110 519 c 0
 74 536 24 616 24 677 c 0
 24 702 32 724 53 737 c 0
 91 761 194 768 428 768 c 0
 662 768 765 761 803 737 c 0x80
EndSplineSet
Validated: 1
EndChar

StartChar: U
Encoding: 85 85 36
Width: 963
VWidth: 0
Flags: HW
HStem: -153 332<409.815 579.399>
VStem: 26 308<239.227 468.243> 662 272<246.621 470.147>
LayerCount: 2
Fore
SplineSet
91 705 m 0
 117 738 198 767 273 767 c 0
 351 767 423 736 423 644 c 0
 423 539 334 535 334 305 c 0
 334 219 411 179 491 179 c 0
 575 179 662 224 662 305 c 0
 662 512 592 533 592 634 c 0
 592 723 660 750 729 750 c 0
 785 750 841 733 862 716 c 0
 883 700 934 533 934 351 c 0
 934 115 849 -148 503 -153 c 0
 499 -153 496 -153 492 -153 c 0
 120 -153 26 139 26 384 c 0
 26 535 62 668 91 705 c 0
EndSplineSet
Validated: 1
EndChar

StartChar: V
Encoding: 86 86 37
Width: 897
VWidth: 0
Flags: HW
LayerCount: 2
Fore
SplineSet
27 730 m 0
 46 751 113 761 179 761 c 0
 247 761 316 751 332 730 c 0
 364 689 398 213 466 213 c 0
 534 213 573 689 611 730 c 0
 631 751 688 762 745 762 c 0
 798 762 850 752 868 730 c 0
 870 727 871 722 871 715 c 0
 871 597 597 -102 557 -125 c 0
 534 -138 494 -148 456 -148 c 0
 425 -148 395 -142 378 -125 c 0
 343 -90 24 608 24 717 c 0
 24 723 25 728 27 730 c 0
EndSplineSet
Validated: 1
EndChar

StartChar: W
Encoding: 87 87 38
Width: 970
VWidth: 0
Flags: HW
VStem: 26 259<187.597 382.339> 657 283<157.549 368.673>
LayerCount: 2
Fore
SplineSet
818 -69 m 0
 747 -123 686 -144 635 -144 c 0
 538 -144 478 -67 459 8 c 1
 447 -63 391 -149 299 -149 c 0
 248 -149 186 -123 115 -54 c 0
 48 11 26 145 26 284 c 0
 26 475 68 675 93 712 c 0
 114 743 175 763 235 763 c 0
 303 763 370 737 370 670 c 0
 370 590 285 353 285 243 c 0
 285 208 294 186 316 186 c 0
 409 186 356 325 388 351 c 0
 400 361 423 364 448 364 c 0
 488 364 531 354 542 344 c 0
 546 340 547 327 547 308 c 0
 547 301 547 292 547 284 c 0
 547 228 552 152 619 152 c 1
 646 152 657 179 657 221 c 0
 657 336 580 563 580 640 c 0
 580 732 640 763 705 763 c 0
 768 763 835 734 857 701 c 0
 893 647 940 464 940 285 c 0
 940 141 910 0 818 -69 c 0
EndSplineSet
Validated: 1
EndChar

StartChar: X
Encoding: 88 88 39
Width: 955
VWidth: 0
Flags: HW
LayerCount: 2
Fore
SplineSet
652 229 m 1
 710 138 829 -44 829 -80 c 0
 829 -109 746 -147 691 -147 c 0
 677 -147 666 -145 657 -139 c 0
 578 -89 476 74 476 74 c 1
 476 74 375 -89 296 -139 c 0
 288 -144 275 -147 262 -147 c 0
 207 -147 123 -107 123 -80 c 0
 123 -47 242 138 300 229 c 1
 129 445 24 662 24 713 c 0
 24 747 98 761 170 761 c 0
 215 761 259 755 282 744 c 0
 311 730 383 635 476 498 c 1
 569 635 641 730 670 744 c 0
 693 755 737 761 782 761 c 0
 854 761 929 747 929 713 c 0
 929 662 823 445 652 229 c 1
EndSplineSet
Validated: 1
EndChar

StartChar: Y
Encoding: 89 89 40
Width: 906
VWidth: 0
Flags: HW
VStem: 312 266<-85.4398 293.178>
LayerCount: 2
Fore
SplineSet
26 634 m 0
 50 718 126 759 175 759 c 0
 182 759 188 758 193 756 c 0
 238 743 448 521 448 521 c 1
 448 521 652 728 727 728 c 0
 730 728 732 728 734 727 c 0
 794 713 880 609 880 555 c 0
 880 548 879 542 876 537 c 0
 850 492 576 276 576 276 c 1
 576 276 578 241 578 191 c 0
 578 90 573 -69 545 -110 c 0
 530 -132 479 -144 431 -144 c 0
 391 -144 353 -136 338 -117 c 0
 318 -91 312 -9 312 75 c 0
 312 185 322 300 322 300 c 1
 322 300 24 512 24 620 c 0
 24 625 25 630 26 634 c 0
EndSplineSet
Validated: 1
EndChar

StartChar: Z
Encoding: 90 90 41
Width: 856
VWidth: 0
Flags: HW
HStem: -150 271<397.502 728.589> -119 228<670.2 806.642> 415 350<62.8606 370.597>
VStem: 24 800<-98.4011 87.2893> 32 798<459.897 657.344>
LayerCount: 2
Fore
SplineSet
77 757 m 0xa8
 94 763 124 765 162 765 c 0
 361 765 791 697 817 649 c 0
 825 634 830 601 830 564 c 0
 830 518 822 467 802 448 c 0
 766 414 329 89 329 89 c 1
 329 89 521 121 668 121 c 0xa8
 715 121 758 118 788 109 c 0
 810 103 824 41 824 -17 c 0
 824 -68 813 -115 788 -119 c 0x70
 649 -141 513 -150 396 -150 c 0
 209 -150 70 -127 45 -97 c 0
 30 -79 24 -46 24 -10 c 0xb0
 24 51 42 122 64 147 c 0
 101 215 472 458 472 458 c 1
 472 458 305 415 163 415 c 0
 125 415 89 418 58 426 c 0
 41 430 32 487 32 552 c 0
 32 641 47 747 77 757 c 0xa8
EndSplineSet
Validated: 1
EndChar

StartChar: question
Encoding: 63 63 42
Width: 398
VWidth: -19
Flags: HW
HStem: -119 131<155.177 246.295> 321 112<174.995 261.209>
VStem: 134 134<-107.228 -10.6774> 270 101<226.054 311.487>
LayerCount: 2
Fore
SplineSet
200 12 m 0
 239 12 268 -29 268 -65 c 0
 268 -94 250 -119 202 -119 c 0
 153 -119 134 -92 134 -63 c 0
 134 -27 162 12 200 12 c 0
55 243 m 0
 49 252 26 289 26 329 c 0
 26 380 64 433 223 433 c 0
 330 433 371 368 371 298 c 0
 371 228 329 155 272 137 c 0
 243 128 245 80 240 69 c 0
 234 57 213 51 193 51 c 0
 174 51 156 56 151 67 c 0
 148 73 146 85 146 99 c 0
 146 138 162 195 223 211 c 0
 251 218 270 247 270 273 c 0
 270 293 259 311 233 318 c 0
 225 320 217 321 211 321 c 0
 168 321 171 273 156 261 c 0
 143 251 102 235 76 235 c 0
 66 235 59 237 55 243 c 0
EndSplineSet
Validated: 1
EndChar

StartChar: ampersand
Encoding: 38 38 43
Width: 537
VWidth: -61
Flags: HW
HStem: -141 114<224.595 330.235> 132 54<236.006 323 439 510.531> 367 126<205.388 333.22>
VStem: 25 181<-9.21953 91.6966> 29 151<223.219 341.525> 323 116<-16.4241 130 189 263.52> 346 68<-159.891 -124.234>
LayerCount: 2
Fore
SplineSet
504 186 m 0xec
 508 184 511 168 511 154 c 0
 511 144 509 134 507 132 c 0
 505 130 482 130 454 130 c 0
 449 130 444 130 439 130 c 0xec
 438 56 430 -40 414 -149 c 0
 413 -159 399 -163 387 -163 c 0
 369 -163 348 -154 346 -138 c 0
 345 -133 346 -129 345 -124 c 1
 315 -134 276 -141 237 -141 c 0
 175 -141 125 -123 87 -84 c 0
 57 -53 25 -9 25 32 c 0xf2
 25 40 27 46 29 54 c 0
 40 90 72 131 114 146 c 1
 78 160 48 226 34 265 c 0
 30 275 29 284 29 295 c 0
 29 330 45 370 79 414 c 0
 119 468 169 493 230 493 c 0
 309 493 381 449 401 435 c 0
 401 435 403 431 403 421 c 0
 402 392 384 359 373 349 c 0
 368 350 359 353 351 354 c 0
 327 360 298 367 270 367 c 0
 215 367 180 334 180 282 c 0
 180 218 228 186 323 186 c 2
 324 234 329 265 334 274 c 0
 339 283 351 286 366 286 c 0
 391 286 419 276 427 264 c 0
 433 254 438 228 439 189 c 0
 445 189 450 189 455 189 c 0
 481 189 502 187 504 186 c 0xec
279 -27 m 0
 297 -27 313 -24 331 -19 c 0
 326 36 324 88 323 132 c 0
 288 132 206 128 206 46 c 0xf4
 206 1 235 -27 279 -27 c 0
EndSplineSet
Validated: 1
EndChar

StartChar: exclam
Encoding: 33 33 44
Width: 272
VWidth: -12
Flags: HW
HStem: -111 131<89.1765 180.748> 43 426<76.9556 196.999>
VStem: 26 219<187.953 440.995> 68 135<-98.8446 -2.67741 55.0279 192.413>
LayerCount: 2
Fore
SplineSet
197 61 m 0xe0
 194 49 173 43 148 43 c 0
 115 43 76 54 71 75 c 0
 38 215 26 306 26 365 c 0
 26 414 34 441 46 454 c 0
 56 465 81 469 108 469 c 0
 154 469 209 457 223 441 c 0
 237 425 245 403 245 360 c 0
 245 305 231 216 197 61 c 0xe0
134 20 m 0
 173 20 203 -20 203 -56 c 0
 203 -85 184 -111 136 -111 c 0
 87 -111 68 -84 68 -55 c 0xd0
 68 -19 96 20 134 20 c 0
EndSplineSet
Validated: 1
EndChar

StartChar: bracketleft
Encoding: 91 91 45
Width: 367
VWidth: -9
Flags: HW
HStem: -96 95<187.62 322.656> 343 121<186.266 302.735>
VStem: 30 129<34.7151 310.852>
LayerCount: 2
Fore
SplineSet
331 424 m 0
 338 416 341 407 341 399 c 0
 341 371 302 344 217 343 c 0
 178 342 159 261 159 177 c 0
 159 89 179 -1 216 -1 c 0
 222 -1 228 -1 234 -1 c 0
 290 -1 332 -8 332 -49 c 0
 332 -54 331 -60 330 -66 c 0
 327 -81 260 -96 189 -96 c 0
 145 -96 99 -90 66 -73 c 0
 33 -56 30 1 30 71 c 0
 30 95 30 122 30 148 c 0
 30 154 30 160 30 166 c 0
 30 197 29 228 29 256 c 0
 29 344 35 414 73 436 c 0
 107 456 149 464 188 464 c 0
 252 464 313 444 331 424 c 0
EndSplineSet
Validated: 1
EndChar

StartChar: bracketright
Encoding: 93 93 46
Width: 368
VWidth: -9
Flags: HW
HStem: -96 95<43.5367 178.38> 343 121<64.02 179.734>
VStem: 207 130<34.7151 310.852>
LayerCount: 2
Fore
SplineSet
36 424 m 0
 54 444 114 464 178 464 c 0
 217 464 259 456 293 436 c 0
 331 414 337 344 337 256 c 0
 337 228 336 197 336 166 c 0
 336 160 336 155 336 149 c 0
 336 122 337 96 337 71 c 0
 337 1 333 -56 300 -73 c 0
 267 -90 221 -96 177 -96 c 0
 106 -96 39 -81 36 -66 c 0
 35 -60 34 -54 34 -49 c 0
 34 -8 77 -1 133 -1 c 0
 139 -1 144 -1 150 -1 c 0
 187 -1 207 89 207 177 c 0
 207 261 188 342 149 343 c 0
 64 344 25 371 25 399 c 0
 25 407 29 416 36 424 c 0
EndSplineSet
Validated: 1
EndChar

StartChar: asciicircum
Encoding: 94 94 47
Width: 613
VWidth: -12
Flags: HW
HStem: 170 193<256.32 346.945>
LayerCount: 2
Fore
SplineSet
26 37 m 0
 26 90 166 362 292 363 c 0
 293 363 l 0
 352 363 408 320 445 283 c 0
 511 217 586 102 586 44 c 0
 586 25 578 13 571 7 c 0
 562 -1 552 -5 542 -5 c 0
 510 -5 474 31 431 73 c 0
 392 112 332 170 300 170 c 0
 268 170 225 122 189 84 c 0
 146 38 109 -1 68 -1 c 0
 63 -1 59 -1 54 0 c 0
 41 3 26 14 26 37 c 0
EndSplineSet
Validated: 1
EndChar

StartChar: underscore
Encoding: 95 95 48
Width: 554
VWidth: -40
Flags: HW
HStem: -150 95<46.0659 506.921>
LayerCount: 2
Fore
SplineSet
509 -67 m 0
 520 -72 524 -80 524 -90 c 0
 524 -113 498 -143 479 -150 c 0
 469 -154 400 -157 277 -157 c 0
 154 -157 85 -154 74 -150 c 0
 55 -143 29 -113 29 -90 c 0
 29 -80 34 -72 45 -67 c 0
 65 -58 155 -55 277 -55 c 0
 399 -55 489 -58 509 -67 c 0
EndSplineSet
Validated: 1
EndChar

StartChar: grave
Encoding: 96 96 49
Width: 216
VWidth: 17
Flags: HW
HStem: 462 168
VStem: 32 151
LayerCount: 2
Fore
SplineSet
122 475 m 0
 68 523 32 566 32 581 c 0
 32 596 78 630 96 630 c 0
 107 630 159 573 177 551 c 0
 181 546 183 535 183 524 c 0
 183 496 172 462 148 462 c 0
 140 462 132 466 122 475 c 0
EndSplineSet
Validated: 1
EndChar

StartChar: backslash
Encoding: 92 92 50
Width: 449
VWidth: -10
Flags: HW
LayerCount: 2
Fore
SplineSet
346 -54 m 0
 167 132 26 338 26 373 c 0
 26 401 81 430 113 430 c 0
 119 430 123 429 127 427 c 0
 165 409 295 230 421 -18 c 0
 422 -21 423 -23 423 -26 c 0
 423 -44 394 -63 370 -63 c 0
 361 -63 353 -61 346 -54 c 0
EndSplineSet
Validated: 1
EndChar

StartChar: slash
Encoding: 47 47 51
Width: 424
VWidth: -9
Flags: HW
LayerCount: 2
Fore
SplineSet
29 -10 m 0
 137 225 277 428 308 443 c 0
 311 445 315 445 319 445 c 0
 350 445 397 396 397 370 c 0
 397 327 273 141 89 -67 c 0
 85 -71 81 -73 75 -73 c 0
 54 -73 26 -48 26 -23 c 0
 26 -19 27 -14 29 -10 c 0
EndSplineSet
Validated: 1
EndChar

StartChar: period
Encoding: 46 46 52
Width: 227
VWidth: -12
Flags: HW
HStem: -137 164<60.4593 164.74>
VStem: 29 169<-116.5 -7.72509>
LayerCount: 2
Fore
SplineSet
113 27 m 0
 162 27 198 -24 198 -69 c 0
 198 -105 174 -137 114 -137 c 0
 53 -137 29 -102 29 -66 c 0
 29 -21 65 27 113 27 c 0
EndSplineSet
Validated: 1
EndChar

StartChar: hyphen
Encoding: 45 45 53
Width: 452
VWidth: -12
Flags: HW
HStem: 103 153<66.4087 384.591>
VStem: 30 391<128.742 242.793>
LayerCount: 2
Fore
SplineSet
408 238 m 0
 417 230 421 217 421 203 c 0
 421 168 400 123 385 113 c 0
 377 107 322 103 225 103 c 0
 128 103 74 107 66 113 c 0
 51 123 30 168 30 203 c 0
 30 217 33 230 42 238 c 0
 58 252 129 256 225 256 c 0
 321 256 392 252 408 238 c 0
EndSplineSet
Validated: 1
EndChar

StartChar: comma
Encoding: 44 44 54
Width: 207
VWidth: -10
Flags: HW
HStem: -136 169<63 116>
VStem: 28 151
LayerCount: 2
Fore
SplineSet
89 -123 m 0
 79 -132 71 -136 63 -136 c 0
 39 -136 28 -103 28 -75 c 0
 28 -64 30 -52 34 -47 c 0
 52 -25 105 33 116 33 c 0
 134 33 179 -2 179 -17 c 0
 179 -32 143 -75 89 -123 c 0
EndSplineSet
Validated: 1
EndChar

StartChar: plus
Encoding: 43 43 55
Width: 530
VWidth: -12
Flags: HW
HStem: 104 150<69.3977 171 358 459.602>
VStem: 26 477<135.253 241.477> 171 187<254 382.772> 210 107<-36.9102 76.1224>
LayerCount: 2
Fore
SplineSet
489 238 m 0xa0
 500 230 503 217 503 203 c 0xc0
 503 168 478 123 460 113 c 0
 452 109 413 106 344 104 c 0
 337 62 329 18 317 -29 c 0
 315 -39 296 -44 275 -44 c 0
 247 -44 214 -35 210 -19 c 0x90
 199 23 191 65 185 104 c 0
 116 106 77 109 69 113 c 0
 51 123 26 168 26 203 c 0xc0
 26 217 30 230 41 238 c 0
 55 248 102 252 171 254 c 0
 171 260 171 266 171 271 c 0
 171 335 179 380 189 390 c 0
 198 398 218 402 241 402 c 0
 280 402 327 392 339 380 c 0
 351 368 358 328 358 270 c 0
 358 265 358 259 358 254 c 0
 427 252 475 248 489 238 c 0xa0
EndSplineSet
Validated: 1
EndChar

StartChar: asterisk
Encoding: 42 42 56
Width: 400
VWidth: -12
Flags: HW
VStem: 153 86<8.44811 103 255 349.552>
LayerCount: 2
Fore
SplineSet
275 176 m 1
 326 142 373 102 373 86 c 0
 373 59 330 47 322 47 c 0
 320 47 319 47 318 47 c 0
 309 50 274 78 239 108 c 1
 239 62 235 17 227 8 c 0
 224 6 210 1 190 1 c 0
 172 1 164 4 162 6 c 0
 156 12 153 39 153 71 c 0
 153 81 154 92 154 103 c 1
 121 78 90 58 78 58 c 0
 57 62 26 98 26 109 c 0
 26 116 79 151 124 182 c 1
 73 216 26 256 26 272 c 0
 26 299 69 312 77 312 c 0
 79 312 80 311 80 311 c 0
 89 308 125 280 160 250 c 1
 160 296 163 341 171 350 c 0
 174 352 188 357 208 357 c 0
 226 357 235 354 237 352 c 0
 243 346 245 320 245 288 c 0
 245 278 244 266 244 255 c 1
 277 280 309 300 321 300 c 0
 342 296 372 261 372 250 c 0
 372 243 320 207 275 176 c 1
EndSplineSet
Validated: 1
EndChar

StartChar: parenright
Encoding: 41 41 57
Width: 440
VWidth: -12
Flags: HW
HStem: -103 88<50.4618 184.594> 344 119<47.486 178.042>
VStem: 259 154<64.0444 272.66>
LayerCount: 2
Fore
SplineSet
145 -104 m 0
 131 -104 119 -103 109 -103 c 0
 103 -103 97 -103 93 -103 c 0
 61 -103 40 -74 40 -54 c 0
 40 -24 73 -20 104 -15 c 0
 169 -5 259 8 259 179 c 0
 259 311 180 329 111 344 c 0
 68 354 25 364 25 407 c 0
 25 433 45 463 74 463 c 0
 293 463 413 356 413 162 c 0
 413 41 367 -104 145 -104 c 0
EndSplineSet
Validated: 1
EndChar

StartChar: parenleft
Encoding: 40 40 58
Width: 440
VWidth: -12
Flags: HW
HStem: -103 88<254.406 388.538> 344 119<260.958 391.514>
VStem: 26 154<64.0444 272.66>
LayerCount: 2
Fore
SplineSet
294 -104 m 0
 72 -104 26 41 26 162 c 0
 26 356 146 463 365 463 c 0
 394 463 414 433 414 407 c 0
 414 364 371 354 328 344 c 0
 259 329 180 311 180 179 c 0
 180 8 270 -5 335 -15 c 0
 366 -20 399 -24 399 -54 c 0
 399 -74 378 -103 346 -103 c 0
 342 -103 336 -103 330 -103 c 0
 320 -103 308 -104 294 -104 c 0
EndSplineSet
Validated: 1
EndChar

StartChar: quotesingle
Encoding: 39 39 59
Width: 160
VWidth: -110
Flags: HW
HStem: 319 179<51.4507 118.348>
VStem: 30 100<340.448 487.681> 30 91<340.448 440.87>
LayerCount: 2
Fore
SplineSet
121 352 m 0xa0
 117 328 106 319 94 319 c 0
 68 319 31 355 30 374 c 0
 30 378 30 384 30 390 c 0
 30 424 35 482 41 488 c 0
 49 494 70 498 90 498 c 0
 105 498 118 495 122 490 c 0
 126 484 130 467 130 442 c 0xc0
 130 418 126 387 121 352 c 0xa0
EndSplineSet
Validated: 1
EndChar

StartChar: percent
Encoding: 37 37 60
Width: 591
VWidth: -58
Flags: HW
HStem: -124 86<405.181 479.953> 69 78<411.482 474.649> 228 81<101.429 174.403> 409 72<105.588 169.055> 440 20G<414 433>
VStem: 26 71<313.455 403.018> 179 74<313.219 400.266> 325 75<-32.8512 59.4678> 486 79<-33.2565 59.5646>
LayerCount: 2
Fore
SplineSet
405 458 m 0xef80
 409 459 412 460 416 460 c 0
 450 460 499 408 499 380 c 0
 499 334 368 135 172 -86 c 0
 168 -91 163 -92 157 -92 c 0
 135 -92 105 -64 105 -38 c 0
 105 -33 105 -29 107 -25 c 0
 222 225 373 442 405 458 c 0xef80
443 147 m 0
 512 147 565 63 565 -11 c 0
 565 -70 531 -124 446 -124 c 0
 358 -124 325 -67 325 -7 c 0
 325 67 374 147 443 147 c 0
443 -38 m 0
 474 -38 486 -16 486 8 c 0
 486 37 468 69 443 69 c 0
 418 69 400 37 400 8 c 0
 400 -16 412 -38 443 -38 c 0
137 481 m 0xf780
 202 481 253 404 253 334 c 0
 253 278 220 228 140 228 c 0
 58 228 26 278 26 336 c 0
 26 405 73 481 137 481 c 0xf780
137 409 m 0
 113 409 97 380 97 352 c 0
 97 330 108 309 137 309 c 0
 166 309 179 330 179 352 c 0
 179 380 159 409 137 409 c 0
EndSplineSet
Validated: 1
EndChar

StartChar: dollar
Encoding: 36 36 61
Width: 508
VWidth: -11
Flags: HW
HStem: -109 173<81.6281 205.751> 279 188<312.734 426.811>
VStem: 26 146<216.413 294.39> 205 99<42.9373 94 221 297> 341 141<45.6779 100.108>
LayerCount: 2
Fore
SplineSet
482 51 m 0
 482 -59 387 -99 286 -107 c 0
 286 -108 286 -109 286 -110 c 0
 285 -123 274 -129 261 -129 c 0
 248 -129 232 -123 225 -109 c 0
 148 -107 79 -90 59 -77 c 0
 46 -69 41 -48 41 -25 c 0
 41 16 59 64 90 64 c 0
 91 64 91 64 92 64 c 0
 113 63 160 50 208 42 c 1
 207 60 206 77 205 94 c 0
 201 94 196 94 192 94 c 0
 110 94 26 122 26 283 c 0
 26 403 112 450 206 463 c 0
 207 467 207 470 208 472 c 0
 213 484 226 488 240 488 c 0
 259 488 281 479 293 467 c 0
 362 464 421 450 440 439 c 0
 455 430 462 410 462 386 c 0
 462 353 450 313 431 287 c 0
 427 282 419 279 408 279 c 0
 385 279 348 289 311 297 c 1
 311 274 310 248 309 221 c 1
 317 221 324 222 332 222 c 0
 408 222 482 196 482 51 c 0
172 243 m 0
 172 225 182 218 199 215 c 1
 198 244 198 272 198 297 c 1
 182 288 172 271 172 243 c 0
299 39 m 1
 324 44 341 56 341 81 c 0
 341 97 327 101 305 101 c 0
 304 101 l 0
 303 81 301 60 299 39 c 1
EndSplineSet
Validated: 1
EndChar

StartChar: numbersign
Encoding: 35 35 62
Width: 648
VWidth: -11
Flags: HW
HStem: 26 113<62.5498 153 293 354 493 569.702> 33 93<58.1704 150.62 495.38 588.414> 205 120<291 356> 212 100<41.6461 139.434 507.566 605.354>
VStem: 142 149<325 424.515> 182 80<-80.7964 24.5447> 354 139<139 202.43> 355 150<325 424.515> 382 81<-80.7964 24.5447>
LayerCount: 2
Fore
SplineSet
591 126 m 0x42
 599 120 602 111 602 100 c 0
 602 74 583 40 570 33 c 0x42
 564 30 535 27 483 26 c 0
 478 -5 472 -39 463 -74 c 0
 461 -81 447 -84 431 -84 c 0
 410 -84 385 -78 382 -66 c 0
 374 -35 368 -4 364 26 c 0
 348 26 334 26 323 27 c 0
 311 26 298 26 282 26 c 0
 277 -5 271 -39 262 -74 c 0
 260 -81 247 -84 231 -84 c 0
 210 -84 185 -78 182 -66 c 0
 174 -35 167 -4 163 26 c 0x8480
 112 27 83 30 77 33 c 0
 63 40 45 74 45 100 c 0
 45 111 48 120 56 126 c 0x4480
 66 133 102 138 153 139 c 0
 153 143 153 147 153 152 c 0
 153 170 154 190 155 202 c 0
 154 206 67 209 61 212 c 0
 47 220 26 256 26 284 c 0
 26 295 30 306 38 312 c 0x9480
 49 320 87 323 142 325 c 0
 142 330 142 334 142 338 c 0
 142 389 148 425 156 433 c 0
 163 440 178 443 197 443 c 0
 228 443 267 435 276 425 c 0
 285 415 291 383 291 337 c 0
 291 333 291 329 291 325 c 0
 303 325 313 325 323 324 c 0
 333 325 344 325 356 325 c 0
 356 330 355 334 355 338 c 0
 355 389 361 425 369 433 c 0
 376 440 392 443 411 443 c 0
 442 443 481 435 490 425 c 0
 499 415 505 383 505 337 c 0
 505 333 505 329 505 325 c 0x29
 560 323 598 320 609 312 c 0
 617 306 621 295 621 284 c 0
 621 256 600 220 586 212 c 0
 580 209 492 207 491 203 c 0
 492 191 493 169 493 150 c 0
 493 146 493 143 493 139 c 0x92
 544 138 581 133 591 126 c 0x42
293 139 m 0xa2
 304 139 314 138 323 137 c 0
 332 138 343 139 354 139 c 0
 354 143 354 147 354 151 c 0
 354 172 354 190 356 205 c 1
 344 205 333 205 323 206 c 0
 313 205 302 205 289 205 c 1
 292 191 293 172 293 150 c 0
 293 146 293 143 293 139 c 0xa2
EndSplineSet
Validated: 1
EndChar

StartChar: quotedbl
Encoding: 34 34 63
Width: 301
VWidth: -110
Flags: HW
HStem: 319 179<51.4507 118.348 192.451 259.266>
VStem: 30 100<340.448 487.681> 30 91<340.448 440.87> 171 99<340.448 487.681> 171 91<340.448 440.87>
LayerCount: 2
Fore
SplineSet
41 488 m 0xc0
 49 494 70 498 90 498 c 0
 105 498 118 495 122 490 c 0
 126 484 130 467 130 442 c 0xc0
 130 418 126 387 121 352 c 0xa0
 117 328 106 319 94 319 c 0
 68 319 31 355 30 374 c 0
 30 378 30 384 30 390 c 0
 30 424 35 482 41 488 c 0xc0
264 490 m 0
 268 484 270 467 270 442 c 0x90
 270 418 267 387 262 352 c 0x88
 258 328 247 319 235 319 c 0
 209 319 172 355 171 374 c 0
 171 378 171 384 171 390 c 0x90
 171 424 176 482 182 488 c 0
 190 494 211 498 231 498 c 0
 246 498 260 495 264 490 c 0
EndSplineSet
Validated: 1
EndChar

StartChar: at
Encoding: 64 64 64
Width: 667
VWidth: -58
Flags: HW
HStem: -177 98<218.367 435.422> 13 84<261.631 374.389> 274 71<271.925 363.458> 469 68<241.58 413.367>
VStem: 26 61<53.9307 254.055> 173 69<119.628 242.825> 392 100<119.65 296.639 313 349.514> 413 56<-9.14917 33.7262> 569 71<58.2571 243.197>
LayerCount: 2
Fore
SplineSet
336 -177 m 0xfc80
 228 -177 147 -149 95 -91 c 0
 50 -41 26 29 26 114 c 0
 26 309 157 537 327 537 c 0
 499 537 640 300 640 104 c 0
 640 22 616 -47 572 -95 c 0
 521 -150 442 -177 336 -177 c 0xfc80
327 469 m 0
 183 469 87 312 87 166 c 0
 87 101 106 44 142 0 c 0
 186 -52 249 -79 327 -79 c 0
 405 -79 468 -52 512 0 c 0
 548 44 569 101 569 166 c 0
 569 312 471 469 327 469 c 0
482 350 m 0
 488 340 492 306 492 256 c 0xfe80
 492 192 484 102 469 1 c 0
 468 -8 460 -11 449 -11 c 0
 434 -11 415 -4 413 10 c 0xfd80
 412 19 411 26 410 35 c 1
 386 20 357 13 321 13 c 0
 271 13 232 27 207 55 c 0
 179 85 173 125 173 153 c 0
 173 244 235 345 317 345 c 0
 346 345 373 333 395 313 c 1
 396 338 398 354 402 359 c 0
 407 367 418 369 430 369 c 0
 451 369 476 360 482 350 c 0
376 121 m 0
 387 135 392 153 392 174 c 0
 392 222 362 274 317 274 c 0
 272 274 242 222 242 174 c 0
 242 153 249 135 260 121 c 0
 269 110 286 97 317 97 c 0
 348 97 367 110 376 121 c 0
EndSplineSet
Validated: 1
EndChar

StartChar: braceright
Encoding: 125 125 65
Width: 483
VWidth: -11
Flags: HW
VStem: 153 113<266.456 347.351> 171 110<-8.78643 99.9971>
LayerCount: 2
Fore
SplineSet
63 -101 m 0x40
 41 -101 26 -85 26 -70 c 0
 26 -34 171 -56 171 42 c 0x40
 171 60 167 81 156 107 c 0
 155 111 153 114 153 117 c 0
 153 154 264 144 264 173 c 0
 264 202 141 209 141 249 c 0
 141 252 142 255 144 259 c 0
 150 272 153 285 153 296 c 0
 153 370 29 404 29 435 c 0
 29 438 30 442 33 445 c 0
 39 452 51 459 70 459 c 0
 124 459 266 437 266 302 c 0x80
 266 293 265 284 264 274 c 0
 301 237 457 225 457 166 c 0
 457 126 317 130 279 93 c 1
 281 81 281 70 281 60 c 0
 281 -97 97 -101 63 -101 c 0x40
EndSplineSet
Validated: 1
EndChar

StartChar: braceleft
Encoding: 123 123 66
Width: 483
VWidth: -11
Flags: HW
VStem: 201 110<-8.78643 99.9971> 216 113<266.456 347.351>
LayerCount: 2
Fore
SplineSet
419 -101 m 0x80
 385 -101 201 -97 201 60 c 0x80
 201 70 201 81 203 93 c 1
 165 130 25 126 25 166 c 0
 25 225 181 237 218 274 c 0
 217 284 216 293 216 302 c 0
 216 437 358 459 412 459 c 0
 431 459 443 452 449 445 c 0
 452 442 453 438 453 435 c 0
 453 404 329 370 329 296 c 0
 329 285 332 272 338 259 c 0
 340 255 341 252 341 249 c 0
 341 209 218 202 218 173 c 0
 218 144 329 154 329 117 c 0x40
 329 114 328 111 327 107 c 0
 316 81 311 60 311 42 c 0
 311 -56 456 -34 456 -70 c 0
 456 -85 441 -101 419 -101 c 0x80
EndSplineSet
Validated: 1
EndChar

StartChar: bar
Encoding: 124 124 67
Width: 246
VWidth: -59
Flags: HW
VStem: 28 189<-19.0659 523.479>
LayerCount: 2
Fore
SplineSet
67 -155 m 0
 38 26 28 205 28 335 c 0
 28 443 36 518 46 536 c 0
 55 550 74 555 98 555 c 0
 138 555 187 540 198 519 c 0
 209 498 217 431 217 332 c 0
 217 206 206 27 176 -174 c 0
 174 -190 154 -197 133 -197 c 0
 104 -197 71 -183 67 -155 c 0
EndSplineSet
Validated: 1
EndChar

StartChar: asciitilde
Encoding: 126 126 68
Width: 636
VWidth: -11
Flags: HW
HStem: 186 119<175.732 257.498>
VStem: 29 145<140.94 219.5> 444 162<147.5 248.747>
LayerCount: 2
Fore
SplineSet
381 197 m 0
 430 197 444 204 444 214 c 0
 444 227 417 246 417 262 c 0
 417 267 420 271 425 275 c 0
 451 294 491 307 524 307 c 0
 548 307 568 300 577 285 c 0
 589 264 606 222 606 179 c 0
 606 116 568 52 421 52 c 0
 251 52 295 186 219 186 c 0
 185 186 174 183 174 177 c 0
 174 167 202 147 202 116 c 0
 202 85 154 66 113 66 c 0
 90 66 69 72 61 85 c 0
 47 107 29 149 29 191 c 0
 29 248 63 305 189 305 c 0
 371 305 283 197 381 197 c 0
EndSplineSet
Validated: 1
EndChar

StartChar: section
Encoding: 167 167 69
Width: 411
VWidth: -58
Flags: HW
HStem: -171 168<100.369 232> 244 66<175.107 240.765> 383 146<131.851 256.809>
VStem: 30 145<309.941 376.754> 76 74<132.278 217.189> 257 128<6 191>
LayerCount: 2
Fore
SplineSet
337 173 m 2xf4
 369 144 385 104 385 46 c 0
 385 -34 367 -93 329 -128 c 0
 299 -156 258 -171 206 -171 c 2
 146 -171 84 -151 49 -135 c 0
 39 -130 31 -120 27 -105 c 0
 26 -99 26 -93 26 -85 c 0
 26 -47 44 -2 70 28 c 0
 72 30 75 32 76 32 c 0
 84 32 97 21 107 15 c 0
 122 5 136 -3 152 -3 c 0
 161 -3 177 0 187 24 c 2
 197 48 l 1
 172 52 l 2
 136 58 109 72 93 96 c 0
 82 114 76 134 76 158 c 0xec
 76 169 79 181 81 193 c 2
 83 205 l 1
 73 213 l 2
 54 227 30 255 30 344 c 0
 30 466 82 529 186 529 c 0
 251 529 315 505 343 490 c 0
 354 484 362 466 362 442 c 0
 362 432 361 420 359 409 c 0
 351 380 334 348 305 348 c 0
 277 349 257 360 242 369 c 0
 230 377 221 383 210 383 c 0
 180 383 177 345 176 330 c 2
 175 308 l 1
 175 308 202 310 203 310 c 0
 267 310 319 245 331 184 c 2
 332 178 l 1
 337 173 l 2xf4
203 125 m 0
 242 125 257 149 257 175 c 0
 257 207 233 244 203 244 c 0
 173 244 150 207 150 175 c 0
 150 149 164 125 203 125 c 0
EndSplineSet
Validated: 1
EndChar

StartChar: copyright
Encoding: 169 169 70
Width: 667
VWidth: -58
Flags: HW
HStem: -177 98<218.367 435.422> -34 95<277.152 412.415> 269 115<280.594 430.948> 469 68<241.58 413.367>
VStem: 26 61<53.9307 254.055> 133 118<86.4426 239.606> 569 71<58.2571 243.197>
LayerCount: 2
Fore
SplineSet
327 537 m 0
 499 537 640 300 640 104 c 0
 640 22 616 -47 572 -95 c 0
 521 -150 442 -177 336 -177 c 0
 228 -177 147 -149 95 -91 c 0
 50 -41 26 29 26 114 c 0
 26 309 157 537 327 537 c 0
512 0 m 0
 548 44 569 101 569 166 c 0
 569 312 471 469 327 469 c 0
 183 469 87 312 87 166 c 0
 87 101 106 44 142 0 c 0
 186 -52 249 -79 327 -79 c 0
 405 -79 468 -52 512 0 c 0
183 323 m 0
 219 363 273 384 339 384 c 0
 404 384 449 371 490 339 c 0
 506 327 513 307 513 288 c 0
 513 280 512 271 510 265 c 0
 504 246 489 234 470 234 c 0
 464 234 457 235 449 239 c 0
 407 259 370 269 340 269 c 0
 252 269 251 180 251 176 c 0
 251 142 258 61 322 61 c 0
 344 61 371 70 393 78 c 0
 414 84 434 90 450 90 c 0
 476 90 491 76 492 48 c 0
 492 39 492 26 480 14 c 0
 451 -16 376 -34 317 -34 c 0
 209 -34 147 35 133 170 c 0
 133 175 133 179 133 185 c 0
 133 221 143 279 183 323 c 0
EndSplineSet
Validated: 1
EndChar

StartChar: registered
Encoding: 174 174 71
Width: 667
VWidth: -58
Flags: HW
HStem: -177 98<218.367 435.422> 308 78<284.496 385.88> 469 68<241.58 413.367>
VStem: 26 61<53.9307 254.055> 165 120<0.42334 95.9861 103.333 301.938> 396 105<209.89 295.658> 569 71<58.2571 243.197>
LayerCount: 2
Fore
SplineSet
327 537 m 0
 499 537 640 300 640 104 c 0
 640 22 616 -47 572 -95 c 0
 521 -150 442 -177 336 -177 c 0
 228 -177 147 -149 95 -91 c 0
 50 -41 26 29 26 114 c 0
 26 309 157 537 327 537 c 0
512 0 m 0
 548 44 569 101 569 166 c 0
 569 312 471 469 327 469 c 0
 183 469 87 312 87 166 c 0
 87 101 106 44 142 0 c 0
 186 -52 249 -79 327 -79 c 0
 405 -79 468 -52 512 0 c 0
173 335 m 0
 182 355 266 386 346 386 c 0
 422 386 495 359 500 273 c 0
 500 267 501 260 501 254 c 0
 501 155 448 138 409 138 c 0
 387 138 369 143 369 143 c 1
 369 143 491 66 491 35 c 0
 491 6 428 -27 407 -27 c 0
 405 -27 403 -26 402 -26 c 0
 381 -20 282 96 282 96 c 1
 282 96 285 77 285 53 c 0
 285 25 281 -6 271 -14 c 0
 265 -19 256 -21 245 -21 c 0
 223 -21 195 -11 185 3 c 0
 175 17 165 145 165 240 c 0
 165 285 167 321 173 335 c 0
331 308 m 0
 309 308 288 301 286 299 c 0
 282 295 280 268 280 244 c 0
 280 226 281 211 283 206 c 0
 285 201 305 195 327 195 c 0
 358 195 396 208 396 254 c 0
 396 298 362 308 331 308 c 0
EndSplineSet
Validated: 1
EndChar

StartChar: a
Encoding: 97 97 72
Width: 568
VWidth: -13
Flags: HW
HStem: 55 133<253.91 319.422>
VStem: 316 226<-58.094 10.6559>
LayerCount: 2
Fore
SplineSet
370 459 m 0
 387 440 542 -23 542 -92 c 0
 542 -96 542 -99 541 -100 c 0
 530 -109 485 -115 442 -115 c 0
 402 -115 364 -110 355 -100 c 0
 336 -79 316 54 316 54 c 1
 257 55 l 1
 257 55 237 -89 213 -100 c 0
 199 -106 144 -113 97 -113 c 0
 62 -113 32 -109 25 -100 c 0
 24 -99 24 -97 24 -94 c 0
 24 -31 175 444 196 459 c 0
 208 468 250 473 290 473 c 0
 327 473 361 469 370 459 c 0
246 188 m 1
 324 183 l 1
 324 183 305 325 289 325 c 0
 272 321 246 188 246 188 c 1
EndSplineSet
Validated: 1
EndChar

StartChar: b
Encoding: 98 98 73
Width: 465
VWidth: -13
Flags: HW
HStem: -115 108<176.5 309.037> 109 138<202.196 292.353> 355 118<137 282.992>
VStem: 26 170<254.462 351.51> 298 100<255.097 338.94> 325 114<10.4596 93.1798>
LayerCount: 2
Fore
SplineSet
334 178 m 1xf8
 372 175 435 154 439 44 c 0
 439 42 439 39 439 37 c 0xf4
 439 -83 312 -115 210 -115 c 0
 143 -115 86 -101 83 -89 c 0
 42 72 26 230 26 334 c 0
 26 398 32 442 43 453 c 0
 50 460 105 473 169 473 c 0
 260 473 371 446 392 333 c 0
 396 312 398 294 398 278 c 0
 398 204 360 183 334 178 c 1xf8
203 349 m 0
 199 344 196 323 196 301 c 0
 196 281 198 262 202 256 c 0
 205 251 221 247 239 247 c 0
 266 247 298 257 298 287 c 0xf8
 298 342 257 355 229 355 c 0
 216 355 206 352 203 349 c 0
217 -2 m 0
 220 -5 230 -7 242 -7 c 0
 274 -7 325 6 325 49 c 0
 325 51 325 54 325 56 c 0xf4
 320 98 275 109 241 109 c 0
 221 109 206 106 202 102 c 0
 200 99 198 93 198 84 c 0
 198 57 208 8 217 -2 c 0
EndSplineSet
Validated: 1
EndChar

StartChar: c
Encoding: 99 99 74
Width: 602
VWidth: -12
Flags: HW
HStem: -123 138<241.457 401.127> 314 168<250.726 432.472>
VStem: 25 171<68.7096 257.331>
LayerCount: 2
Fore
SplineSet
97 393 m 0
 150 452 226 482 323 482 c 0
 418 482 483 462 542 415 c 0
 565 397 575 368 575 342 c 0
 575 331 573 320 570 310 c 0
 560 282 538 265 512 265 c 0
 502 265 492 267 482 272 c 0
 421 300 368 314 325 314 c 0
 198 314 196 185 196 180 c 0
 196 130 206 15 298 15 c 0
 332 15 370 27 403 38 c 0
 434 48 461 56 484 56 c 0
 521 56 544 34 546 -6 c 0
 546 -7 546 -9 546 -10 c 0
 546 -22 543 -39 527 -56 c 0
 485 -100 377 -123 291 -123 c 0
 135 -123 46 -24 26 171 c 0
 25 178 25 185 25 194 c 0
 25 246 40 329 97 393 c 0
EndSplineSet
Validated: 1
EndChar

StartChar: d
Encoding: 100 100 75
Width: 503
VWidth: -13
Flags: HW
HStem: -110 151<132 272.979> 307 162<157 273.347>
VStem: 27 163<46.512 303.499> 331 144<101.919 249.326>
LayerCount: 2
Fore
SplineSet
469 221 m 0
 473 195 475 171 475 149 c 0
 475 -63 292 -110 164 -110 c 0
 100 -110 49 -99 42 -90 c 0
 32 -78 27 15 27 120 c 0
 27 257 35 413 49 433 c 0
 58 446 120 469 194 469 c 0
 302 469 436 421 469 221 c 0
200 304 m 0
 194 294 190 216 190 148 c 0
 190 99 193 57 197 48 c 0
 199 44 206 41 215 41 c 0
 252 41 331 79 331 185 c 0
 331 269 245 307 212 307 c 0
 206 307 202 307 200 304 c 0
EndSplineSet
Validated: 1
EndChar

StartChar: e
Encoding: 101 101 76
Width: 414
VWidth: -12
Flags: HW
HStem: -110 147<186.149 372.66> 318 151<184.096 343.382>
VStem: 27 149<39.3441 154.753 246.748 314.179>
LayerCount: 2
Fore
SplineSet
373 29 m 0
 383 21 388 -7 388 -35 c 0
 388 -62 384 -88 375 -99 c 0
 369 -106 333 -110 287 -110 c 0
 196 -110 66 -98 54 -78 c 0
 37 -51 27 170 27 272 c 0
 27 281 27 289 27 296 c 0
 29 396 44 447 63 461 c 0
 69 466 116 469 170 469 c 0
 244 469 332 463 344 449 c 0
 354 437 358 405 358 375 c 0
 358 344 353 315 345 312 c 0
 343 311 338 311 331 311 c 0
 300 311 232 318 200 318 c 0
 191 318 186 317 184 316 c 0
 179 312 177 300 177 287 c 0
 177 273 179 259 184 252 c 0
 193 240 254 251 266 238 c 0
 271 232 274 218 274 202 c 0
 274 181 270 159 267 152 c 0
 266 150 262 148 257 148 c 0
 241 148 211 157 195 157 c 0
 191 157 187 156 185 155 c 0
 179 150 176 127 176 102 c 0
 176 75 179 46 186 39 c 0
 189 36 204 35 224 35 c 0
 250 35 285 37 315 37 c 0
 343 37 366 35 373 29 c 0
EndSplineSet
Validated: 1
EndChar

StartChar: f
Encoding: 102 102 77
Width: 388
VWidth: -12
Flags: HW
HStem: 319 151<143.5 337.951>
VStem: 27 157<-53.2593 154.951 246.054 316.807>
LayerCount: 2
Fore
SplineSet
186 155 m 0
 184 154 184 150 184 143 c 0
 184 104 207 -19 207 -75 c 0
 207 -88 205 -97 202 -101 c 0
 196 -108 179 -112 159 -112 c 0
 119 -112 66 -99 54 -79 c 0
 37 -52 27 170 27 273 c 0
 27 282 27 289 27 296 c 0
 29 396 44 449 63 463 c 0
 69 468 116 470 171 470 c 0
 246 470 333 465 345 451 c 0
 355 439 360 406 360 376 c 0
 360 344 355 315 347 312 c 0
 345 311 340 311 333 311 c 0
 302 311 233 319 201 319 c 0
 192 319 187 318 185 317 c 0
 180 313 178 301 178 288 c 0
 178 274 180 259 185 252 c 0
 194 240 255 251 268 238 c 0
 273 232 275 218 275 202 c 0
 275 181 271 158 268 151 c 0
 267 149 264 148 259 148 c 0
 243 148 212 157 196 157 c 0
 192 157 188 156 186 155 c 0
EndSplineSet
Validated: 1
EndChar

StartChar: g
Encoding: 103 103 78
Width: 530
VWidth: -13
Flags: HW
HStem: -110 143<218.563 349.583> 90 116<290.769 350.978> 317 152<213.164 403.906>
VStem: 26 147<88.5696 273.199> 355 144<41.4892 159.5>
LayerCount: 2
Fore
SplineSet
485 424 m 0
 497 415 502 399 502 382 c 0
 502 340 472 288 444 285 c 0
 443 285 441 284 440 284 c 0
 409 284 390 317 310 317 c 0
 293 317 274 315 251 312 c 0
 195 304 173 248 173 190 c 0
 173 121 204 46 249 38 c 0
 259 36 277 33 294 33 c 0
 324 33 355 42 355 76 c 0
 355 83 354 90 351 99 c 2
 351 99 321 90 300 90 c 0
 294 90 290 90 286 92 c 0
 277 96 269 119 269 142 c 0
 269 163 275 183 290 192 c 0
 306 201 348 206 389 206 c 0
 434 206 479 200 491 187 c 0
 497 181 499 168 499 151 c 0
 499 82 461 -53 449 -68 c 0
 439 -80 366 -110 283 -110 c 0
 171 -110 41 -55 27 176 c 0
 26 187 26 198 26 208 c 0
 26 415 166 469 292 469 c 0
 380 469 462 443 485 424 c 0
EndSplineSet
Validated: 1
EndChar

StartChar: h
Encoding: 104 104 79
Width: 567
VWidth: -12
Flags: HW
HStem: -106 20G<150 178 414 437.5> 446 20G<112.5 151.5> 446 20G<112.5 151.5>
VStem: 332 206<230.352 330.004>
LayerCount: 2
Fore
SplineSet
115 -86 m 0xd0
 52 96 26 277 26 373 c 0
 26 408 30 432 36 440 c 0
 48 457 92 466 133 466 c 0
 170 466 204 459 212 445 c 0
 229 416 258 228 258 228 c 1
 332 224 l 1
 332 224 372 445 394 451 c 0
 401 453 410 454 421 454 c 0
 459 454 514 444 529 431 c 0
 534 426 538 402 538 365 c 0
 538 274 518 98 463 -95 c 0
 460 -104 446 -107 429 -107 c 0
 399 -107 360 -97 352 -88 c 0
 340 -74 323 45 323 45 c 1
 270 43 l 1
 270 43 251 -76 241 -87 c 0
 235 -94 195 -106 161 -106 c 0
 139 -106 120 -100 115 -86 c 0xd0
EndSplineSet
Validated: 1
EndChar

StartChar: i
Encoding: 105 105 80
Width: 276
VWidth: -12
Flags: HW
HStem: -111 580<77.3166 196.999>
VStem: 26 219<47.3677 440.569>
LayerCount: 2
Fore
SplineSet
71 -78 m 0
 38 62 26 199 26 299 c 0
 26 382 35 441 47 454 c 0
 57 465 81 469 108 469 c 0
 154 469 209 457 223 441 c 0
 237 425 245 373 245 297 c 0
 245 200 231 63 197 -92 c 0
 194 -104 173 -111 148 -111 c 0
 115 -111 76 -99 71 -78 c 0
EndSplineSet
Validated: 1
EndChar

StartChar: j
Encoding: 106 106 81
Width: 521
VWidth: -12
Flags: HW
HStem: -105 156<217.914 287.319> 444 20G<330.5 369.5>
VStem: 24 164<81.0784 178.385> 311 181<78.0938 296.688>
LayerCount: 2
Fore
SplineSet
40 179 m 0
 58 201 91 223 123 223 c 0
 152 223 180 204 188 150 c 0
 199 81 225 51 251 51 c 0
 282 51 311 93 311 164 c 0
 311 170 310 177 310 184 c 0
 301 314 266 326 266 390 c 0
 266 446 309 464 352 464 c 0
 387 464 423 453 436 442 c 0
 450 431 492 309 492 183 c 0
 492 41 438 -105 234 -105 c 0
 92 -105 24 31 24 120 c 0
 24 145 29 166 40 179 c 0
EndSplineSet
Validated: 1
EndChar

StartChar: k
Encoding: 107 107 82
Width: 527
VWidth: -13
Flags: HW
HStem: -109 576<76.3166 195.995>
VStem: 26 217<309 438.783> 71 125<-98.4487 24.5429>
LayerCount: 2
Fore
SplineSet
334 184 m 1xc0
 430 87 501 -16 501 -41 c 0
 501 -72 424 -107 400 -107 c 0
 399 -107 399 -107 398 -107 c 0
 374 -105 305 -28 229 98 c 1
 221 40 211 -24 196 -91 c 0
 193 -103 171 -109 147 -109 c 0
 114 -109 76 -98 71 -77 c 0xa0
 38 62 26 199 26 299 c 0
 26 382 34 439 46 452 c 0
 56 463 80 467 107 467 c 0
 153 467 207 455 221 439 c 0
 234 424 242 377 243 309 c 1
 304 387 357 439 375 440 c 0
 376 440 l 0
 405 440 481 383 481 359 c 0
 481 335 422 262 334 184 c 1xc0
EndSplineSet
Validated: 1
EndChar

StartChar: l
Encoding: 108 108 83
Width: 484
VWidth: -12
Flags: HW
HStem: -109 204<202.641 414.258>
VStem: 25 433<-83.8242 49.4863>
LayerCount: 2
Fore
SplineSet
76 445 m 0
 83 458 113 467 145 467 c 0
 183 467 224 454 232 420 c 0
 234 412 235 401 235 387 c 0
 235 294 198 95 198 95 c 1
 198 95 202 95 208 95 c 0
 249 95 407 93 432 61 c 0
 447 41 458 -4 458 -41 c 0
 458 -73 450 -98 432 -101 c 0
 415 -103 340 -109 261 -109 c 0
 158 -109 44 -101 31 -70 c 0
 27 -60 25 -38 25 -8 c 0
 25 128 62 420 76 445 c 0
EndSplineSet
Validated: 1
EndChar

StartChar: m
Encoding: 109 109 84
Width: 627
VWidth: -13
Flags: HW
HStem: -106 21G<153.5 193.5 444.5 484.5> 441 20G<200 246.5 398.5 443>
VStem: 26 177<101.174 275.848> 435 162<98.4111 254.076>
LayerCount: 2
Fore
SplineSet
102 415 m 0
 146 449 184 461 216 461 c 0
 277 461 314 413 326 366 c 1
 334 411 370 464 427 464 c 0
 459 464 497 448 541 405 c 0
 583 364 597 280 597 193 c 0
 597 74 570 -51 555 -74 c 0
 542 -93 503 -106 466 -106 c 0
 423 -106 382 -90 382 -48 c 0
 382 2 435 150 435 219 c 0
 435 241 430 255 416 255 c 0
 358 255 391 168 371 152 c 0
 363 146 349 144 333 144 c 0
 308 144 281 150 274 156 c 0
 271 159 271 168 271 179 c 0
 271 184 271 189 271 194 c 0
 271 229 268 276 226 276 c 0
 209 276 203 259 203 233 c 0
 203 161 251 19 251 -29 c 0
 251 -86 214 -106 173 -106 c 0
 134 -106 92 -88 78 -67 c 0
 56 -33 26 81 26 193 c 0
 26 283 45 372 102 415 c 0
EndSplineSet
Validated: 1
EndChar

StartChar: n
Encoding: 110 110 85
Width: 543
VWidth: -12
Flags: HW
HStem: -107 21G<385 411.5> 445 20G<88 122.5> 445 20G<88 122.5>
VStem: 26 176<45.2144 175> 330 183<153.236 443.703>
LayerCount: 2
Fore
SplineSet
508 427 m 0xd8
 511 415 513 394 513 367 c 0
 513 226 477 -80 452 -98 c 0
 444 -104 423 -107 400 -107 c 0
 370 -107 338 -101 328 -87 c 0
 310 -62 200 175 200 175 c 1
 200 175 202 135 202 85 c 0
 202 32 199 -33 190 -77 c 0
 187 -92 157 -102 127 -102 c 0
 101 -102 75 -94 71 -77 c 0
 38 70 26 213 26 313 c 0
 26 386 32 438 43 450 c 0
 52 461 75 465 101 465 c 0
 144 465 197 453 210 437 c 0
 246 410 353 148 353 148 c 1
 353 148 330 265 330 366 c 0
 330 393 332 419 336 441 c 0
 338 453 368 459 402 459 c 0
 449 459 503 448 508 427 c 0xd8
EndSplineSet
Validated: 1
EndChar

StartChar: o
Encoding: 111 111 86
Width: 559
VWidth: -12
Flags: HW
HStem: -105 182<213.748 336.9> 301 163<228.121 322.102>
VStem: 25 159<106.56 249.674> 365 166<106.195 250.687>
LayerCount: 2
Fore
SplineSet
275 464 m 0
 421 464 531 288 531 132 c 0
 531 7 460 -105 280 -105 c 0
 97 -105 25 12 25 139 c 0
 25 293 131 464 275 464 c 0
275 301 m 0
 223 301 184 232 184 171 c 0
 184 121 210 77 275 77 c 0
 340 77 365 121 365 171 c 0
 365 232 327 301 275 301 c 0
EndSplineSet
Validated: 1
EndChar

StartChar: p
Encoding: 112 112 87
Width: 527
VWidth: -12
Flags: HW
HStem: -107 21G<123 146.5> 87 111<195.133 326.855> 355 110<197.548 331.77>
VStem: 27 169<-55.5922 345.768> 353 145<222.259 333.844>
LayerCount: 2
Fore
SplineSet
195 88 m 1
 195 88 196 62 196 28 c 0
 196 -21 193 -85 177 -97 c 0
 168 -104 154 -107 139 -107 c 0
 107 -107 69 -93 55 -73 c 0
 41 -53 27 128 27 261 c 0
 27 324 30 376 38 395 c 0
 50 423 169 465 282 465 c 0
 388 465 491 428 498 307 c 0
 498 301 498 296 498 290 c 0
 498 106 307 87 228 87 c 0
 208 87 195 88 195 88 c 1
193 213 m 0
 196 206 224 198 256 198 c 0
 301 198 353 215 353 279 c 0
 353 340 304 355 261 355 c 0
 230 355 201 347 197 343 c 0
 191 338 189 300 189 266 c 0
 189 242 190 220 193 213 c 0
EndSplineSet
Validated: 1
EndChar

StartChar: q
Encoding: 113 113 88
Width: 591
VWidth: -13
Flags: HW
HStem: -106 183<213.748 295.927> 300 163<228.121 322.102>
VStem: 25 159<106.06 248.959> 365 166<111.5 250.394>
LayerCount: 2
Fore
SplineSet
507 17 m 0
 545 -21 565 -53 565 -66 c 0
 565 -88 492 -107 464 -107 c 0
 460 -107 456 -107 454 -106 c 0
 447 -103 433 -95 415 -77 c 0
 379 -95 335 -106 280 -106 c 0
 97 -106 25 11 25 138 c 0
 25 292 131 463 275 463 c 0
 421 463 531 288 531 132 c 0
 531 91 524 52 507 17 c 0
275 77 m 0
 283 77 290 78 297 79 c 1
 295 82 293 84 291 87 c 0
 290 88 290 90 290 92 c 0
 290 108 324 139 345 139 c 0
 348 139 351 137 353 136 c 0
 355 135 357 133 359 132 c 1
 363 144 365 157 365 171 c 0
 365 232 327 300 275 300 c 0
 223 300 184 232 184 171 c 0
 184 121 210 77 275 77 c 0
EndSplineSet
Validated: 1
EndChar

StartChar: r
Encoding: 114 114 89
Width: 527
VWidth: -12
Flags: HW
HStem: 63 139<192 256> 360 109<197.548 331.77>
VStem: 27 168<-51.5922 62.9789 83.3734 351.317> 353 146<227.343 338.407>
LayerCount: 2
Fore
SplineSet
314 128 m 1
 314 128 485 20 485 -24 c 0
 485 -25 485 -27 485 -28 c 0
 475 -66 403 -111 368 -111 c 0
 365 -111 362 -111 360 -110 c 0
 330 -101 192 63 192 63 c 1
 192 63 195 34 195 1 c 0
 195 -37 191 -81 177 -92 c 0
 168 -99 154 -102 139 -102 c 0
 107 -102 69 -89 55 -69 c 0
 41 -49 27 132 27 265 c 0
 27 328 30 380 38 399 c 0
 50 427 169 469 282 469 c 0
 388 469 491 432 498 311 c 0
 499 302 499 293 499 285 c 0
 499 146 424 120 369 120 c 0
 338 120 314 128 314 128 c 1
193 218 m 0
 196 211 224 202 256 202 c 0
 301 202 353 220 353 284 c 0
 353 345 304 360 261 360 c 0
 230 360 201 352 197 348 c 0
 191 343 189 305 189 271 c 0
 189 247 190 225 193 218 c 0
EndSplineSet
Validated: 1
EndChar

StartChar: s
Encoding: 115 115 90
Width: 507
VWidth: -13
Flags: HW
HStem: -109 145<126.47 330.918> 94 120<171.71 315.854> 102 120<205.238 339.053> 306 162<182.48 369.974>
VStem: 25 146<216.599 292.21> 340 141<45.1335 100.539>
LayerCount: 2
Fore
SplineSet
171 243 m 0xdc
 171 220 189 214 216 214 c 0xdc
 247 214 289 222 331 222 c 0
 407 222 481 196 481 51 c 0
 481 -75 358 -109 243 -109 c 0
 159 -109 80 -91 58 -77 c 0
 45 -69 40 -48 40 -25 c 0
 40 16 58 64 89 64 c 0
 90 64 90 64 91 64 c 0
 122 62 207 36 269 36 c 0
 309 36 340 47 340 81 c 0
 340 97 326 102 304 102 c 0xbc
 276 102 234 94 191 94 c 0
 109 94 25 122 25 283 c 0
 25 430 154 468 269 468 c 0
 347 468 418 451 439 439 c 0
 454 430 461 410 461 386 c 0
 461 353 449 313 430 287 c 0
 426 282 418 279 407 279 c 0
 369 279 296 306 241 306 c 0
 201 306 171 292 171 243 c 0xdc
EndSplineSet
Validated: 1
EndChar

StartChar: t
Encoding: 116 116 91
Width: 557
VWidth: -12
Flags: HW
VStem: 185 182<-87.3779 298.032>
LayerCount: 2
Fore
SplineSet
511 448 m 0
 524 440 530 426 530 410 c 0
 530 372 498 323 475 312 c 0
 465 307 438 303 350 301 c 1
 352 243 367 164 367 65 c 0
 367 18 364 -34 353 -90 c 0
 351 -103 324 -109 293 -109 c 0
 251 -109 202 -98 198 -76 c 0
 189 -30 185 15 185 57 c 0
 185 154 203 238 204 301 c 0
 116 303 88 307 78 312 c 0
 55 323 24 372 24 410 c 0
 24 426 29 440 42 448 c 0
 66 463 131 467 277 467 c 0
 423 467 487 463 511 448 c 0
EndSplineSet
Validated: 1
EndChar

StartChar: u
Encoding: 117 117 92
Width: 623
VWidth: -12
Flags: HW
HStem: -108 207<246.935 389.169> 447 20G<156.5 204.5> 447 20G<156.5 204.5>
VStem: 26 192<129.111 299.366> 424 169<129.791 304.364>
LayerCount: 2
Fore
SplineSet
67 428 m 0xd8
 83 449 133 467 180 467 c 0
 229 467 274 447 274 390 c 0
 274 324 218 322 218 178 c 0
 218 124 267 99 317 99 c 0
 370 99 424 127 424 178 c 0
 424 307 379 320 379 383 c 0
 379 439 422 456 465 456 c 0
 500 456 535 444 548 434 c 0
 561 424 593 321 593 207 c 0
 593 60 540 -105 324 -108 c 0
 322 -108 319 -108 317 -108 c 0
 85 -108 26 74 26 227 c 0
 26 321 49 405 67 428 c 0xd8
EndSplineSet
Validated: 1
EndChar

StartChar: v
Encoding: 118 118 93
Width: 579
VWidth: -12
Flags: HW
HStem: 443 20G<100 142.5 457.5 491.5>
LayerCount: 2
Fore
SplineSet
26 443 m 0
 38 456 79 463 121 463 c 0
 164 463 206 456 216 443 c 0
 236 417 257 120 300 120 c 0
 343 120 367 418 391 443 c 0
 403 456 440 464 475 464 c 0
 508 464 540 457 551 443 c 0
 552 441 553 438 553 434 c 0
 553 360 382 -77 357 -91 c 0
 343 -99 318 -105 294 -105 c 0
 274 -105 255 -101 245 -91 c 0
 223 -69 24 367 24 435 c 0
 24 439 25 442 26 443 c 0
EndSplineSet
Validated: 1
EndChar

StartChar: w
Encoding: 119 119 94
Width: 626
VWidth: -12
Flags: HW
HStem: -106 21G<180 224.5> 444 20G<138.5 178.5 429.5 469.5>
VStem: 26 162<104.493 259.589> 420 177<82.2678 256.826>
LayerCount: 2
Fore
SplineSet
521 -56 m 0
 477 -90 438 -103 406 -103 c 0
 345 -103 309 -55 297 -8 c 1
 289 -53 253 -106 196 -106 c 0
 164 -106 126 -89 82 -46 c 0
 40 -5 26 78 26 165 c 0
 26 284 53 409 68 432 c 0
 81 451 120 464 157 464 c 0
 200 464 241 448 241 406 c 0
 241 356 188 208 188 139 c 0
 188 117 193 104 207 104 c 0
 265 104 232 190 252 206 c 0
 260 212 274 215 290 215 c 0
 315 215 342 208 349 202 c 0
 352 199 352 191 352 179 c 0
 352 174 352 170 352 165 c 0
 352 130 355 82 397 82 c 1
 414 82 420 99 420 125 c 0
 420 197 372 339 372 387 c 0
 372 444 409 464 450 464 c 0
 489 464 531 446 545 425 c 0
 567 391 597 277 597 165 c 0
 597 75 578 -13 521 -56 c 0
EndSplineSet
Validated: 1
EndChar

StartChar: x
Encoding: 120 120 95
Width: 615
VWidth: -13
Flags: HW
HStem: 443 20G<92.5 129 484 520.5>
LayerCount: 2
Fore
SplineSet
416 131 m 1
 452 74 527 -41 527 -63 c 0
 527 -81 475 -105 441 -105 c 0
 432 -105 424 -103 419 -100 c 0
 370 -69 307 33 307 33 c 1
 307 33 243 -69 194 -100 c 0
 189 -103 181 -104 173 -104 c 0
 139 -104 86 -80 86 -63 c 0
 86 -42 161 74 197 131 c 1
 90 266 24 401 24 433 c 0
 24 454 70 463 115 463 c 0
 143 463 171 459 185 452 c 0
 203 443 249 384 307 298 c 1
 365 384 410 443 428 452 c 0
 442 459 470 463 498 463 c 0
 543 463 589 454 589 433 c 0
 589 401 523 266 416 131 c 1
EndSplineSet
Validated: 1
EndChar

StartChar: y
Encoding: 121 121 96
Width: 585
VWidth: -12
Flags: HW
HStem: 441 20G<102.5 120>
VStem: 204 166<-84.3076 174.948>
LayerCount: 2
Fore
SplineSet
25 383 m 0
 40 435 87 461 118 461 c 0
 122 461 127 461 130 460 c 0
 158 452 289 313 289 313 c 1
 289 313 416 442 463 442 c 0
 465 442 467 442 468 442 c 0
 506 433 559 368 559 334 c 0
 559 330 558 326 556 323 c 0
 540 295 369 160 369 160 c 1
 369 160 370 138 370 107 c 0
 370 44 367 -56 350 -82 c 0
 341 -96 309 -103 279 -103 c 0
 254 -103 229 -98 220 -86 c 0
 207 -69 204 -18 204 34 c 0
 204 103 210 175 210 175 c 1
 210 175 24 307 24 375 c 0
 24 378 24 380 25 383 c 0
EndSplineSet
Validated: 1
EndChar

StartChar: z
Encoding: 122 122 97
Width: 557
VWidth: -12
Flags: HW
HStem: -107 170<220.74 508.539> -87 142<429.403 517.762> 246 219<44.9573 282.69>
LayerCount: 2
Fore
SplineSet
58 460 m 0xa0
 68 463 87 465 111 465 c 0
 235 465 505 423 521 393 c 0
 526 384 529 363 529 340 c 0
 529 311 523 279 511 267 c 0
 489 245 216 43 216 43 c 1
 216 43 336 63 428 63 c 0xa0
 458 63 484 60 503 55 c 0
 517 51 525 13 525 -23 c 0
 525 -55 519 -84 503 -87 c 0x60
 416 -101 331 -107 258 -107 c 0
 141 -107 54 -93 38 -74 c 0
 28 -63 25 -42 25 -19 c 0
 25 19 36 64 50 79 c 0
 73 122 305 273 305 273 c 1
 305 273 201 246 112 246 c 0
 88 246 65 248 46 253 c 0
 35 256 30 291 30 332 c 0
 30 388 39 454 58 460 c 0xa0
EndSplineSet
Validated: 1
EndChar

StartChar: questiondown
Encoding: 191 191 99
Width: 396
VWidth: -19
Flags: HW
HStem: -119 112<136.058 218.526> 303 130<150.188 241.445>
VStem: 26 101<3.06914 88.3407> 128 135<324.835 421.228> 156 95<183.156 247.714>
LayerCount: 2
Fore
SplineSet
196 303 m 0xf0
 158 303 128 343 128 379 c 0
 128 408 147 433 195 433 c 0
 244 433 263 407 263 378 c 0
 263 342 234 303 196 303 c 0xf0
341 72 m 0
 347 63 370 25 370 -15 c 0
 370 -66 333 -119 174 -119 c 0
 67 -119 26 -53 26 17 c 0
 26 86 67 160 124 177 c 0
 153 186 150 233 156 245 c 0
 162 257 183 264 203 264 c 0
 222 264 240 259 245 248 c 0
 248 242 251 230 251 215 c 0xe8
 251 176 235 118 174 103 c 0
 146 96 127 68 127 42 c 0
 127 22 138 3 164 -4 c 0
 172 -6 179 -7 185 -7 c 0
 229 -7 225 41 240 53 c 0
 253 63 293 79 320 79 c 0
 330 79 337 77 341 72 c 0
EndSplineSet
Validated: 1
EndChar

StartChar: acute
Encoding: 180 180 100
Width: 216
VWidth: 17
Flags: HW
HStem: 462 168<67 120>
VStem: 32 151<543.468 569.899>
LayerCount: 2
Fore
SplineSet
93 475 m 0
 83 466 74 462 67 462 c 0
 43 462 32 496 32 524 c 0
 32 535 34 546 38 551 c 0
 56 574 108 630 120 630 c 0
 137 630 183 596 183 581 c 0
 183 566 147 522 93 475 c 0
EndSplineSet
Validated: 1
EndChar

StartChar: divide
Encoding: 247 247 101
Width: 502
VWidth: -11
Flags: HW
HStem: -59 130<201.993 294.295> 117 99<39.8739 459.123> 257 161<197.371 300.265>
VStem: 167 165<275.663 384.062> 182 134<-47.2284 48.7992>
LayerCount: 2
Fore
SplineSet
461 203 m 0xe0
 471 198 475 189 475 179 c 0
 475 155 451 124 434 117 c 0
 424 113 361 110 249 110 c 0
 137 110 75 113 65 117 c 0
 48 124 24 155 24 179 c 0
 24 189 28 198 38 203 c 0
 56 213 138 216 249 216 c 0
 360 216 443 213 461 203 c 0xe0
248 71 m 0
 287 71 316 31 316 -5 c 0
 316 -34 298 -59 250 -59 c 0
 201 -59 182 -32 182 -3 c 0xe8
 182 33 210 71 248 71 c 0
250 257 m 0
 190 257 167 290 167 326 c 0
 167 370 201 418 248 418 c 0
 296 418 332 368 332 324 c 0xf0
 332 289 309 257 250 257 c 0
EndSplineSet
Validated: 1
EndChar

StartChar: eacute
Encoding: 233 233 102
Width: 413
VWidth: -12
Flags: HW
HStem: -110 147<185.149 371.66> 318 151<183.096 342.382>
VStem: 26 149<39.3441 154.753 246.748 314.179>
LayerCount: 2
Fore
SplineSet
200 488 m 4
 192 481 185 478 179 478 c 4
 161 478 151 506 151 528 c 4
 151 537 153 545 156 550 c 4
 169 568 212 613 221 613 c 4
 235 613 272 585 272 573 c 4
 272 562 243 526 200 488 c 4
372 29 m 0
 382 21 387 -7 387 -35 c 0
 387 -62 383 -88 374 -99 c 0
 368 -106 332 -110 286 -110 c 0
 195 -110 65 -98 53 -78 c 0
 36 -51 26 170 26 272 c 0
 26 281 26 289 26 296 c 0
 28 396 43 447 62 461 c 0
 68 466 115 469 169 469 c 0
 243 469 331 463 343 449 c 0
 353 437 357 405 357 375 c 0
 357 344 352 315 344 312 c 0
 342 311 337 311 330 311 c 0
 299 311 231 318 199 318 c 0
 190 318 185 317 183 316 c 0
 178 312 176 300 176 287 c 0
 176 273 178 259 183 252 c 0
 192 240 253 251 265 238 c 0
 270 232 273 218 273 202 c 0
 273 181 269 159 266 152 c 0
 265 150 261 148 256 148 c 0
 240 148 210 157 194 157 c 0
 190 157 186 156 184 155 c 0
 178 150 175 127 175 102 c 0
 175 75 178 46 185 39 c 0
 188 36 202 35 222 35 c 0
 248 35 284 37 314 37 c 0
 342 37 365 35 372 29 c 0
EndSplineSet
Validated: 1
EndChar

StartChar: plusminus
Encoding: 177 177 104
Width: 528
VWidth: -12
Flags: HW
HStem: -141 153<103.409 421.591> 184 150<68.3977 170 357 458.602>
VStem: 25 477<215.253 321.477> 67 391<-115.258 -1.20703> 170 187<334 462.772> 209 107<43.0898 156.122>
LayerCount: 2
Fore
SplineSet
445 -6 m 0xd0
 454 -14 458 -27 458 -41 c 0
 458 -76 437 -121 422 -131 c 0
 414 -137 359 -141 262 -141 c 0
 165 -141 111 -137 103 -131 c 0
 88 -121 67 -76 67 -41 c 0
 67 -27 70 -14 79 -6 c 0
 95 8 166 12 262 12 c 0
 358 12 429 8 445 -6 c 0xd0
488 318 m 4
 499 310 502 297 502 283 c 4xe0
 502 248 477 203 459 193 c 4
 451 189 412 186 343 184 c 4
 336 142 328 98 316 51 c 4
 314 41 295 36 274 36 c 4
 246 36 213 45 209 61 c 4xc4
 198 103 190 145 184 184 c 4
 115 186 76 189 68 193 c 4
 50 203 25 248 25 283 c 4xe0
 25 297 29 310 40 318 c 4
 54 328 101 332 170 334 c 4
 170 340 170 346 170 351 c 4
 170 415 178 460 188 470 c 4
 197 478 217 482 240 482 c 4
 279 482 326 472 338 460 c 4
 350 448 357 408 357 350 c 4
 357 345 357 339 357 334 c 4xc8
 426 332 474 328 488 318 c 4
EndSplineSet
Validated: 1
EndChar

StartChar: degree
Encoding: 176 176 105
Width: 200
VWidth: -12
Flags: HW
HStem: 302 50<74.5805 122.025> 413 45<76.0375 120.766>
VStem: 30 44<352.531 412.326> 123 46<352.473 412.86>
LayerCount: 2
Fore
SplineSet
99 458 m 4
 139 458 169 410 169 367 c 4
 169 333 150 302 100 302 c 4
 50 302 30 334 30 369 c 4
 30 411 59 458 99 458 c 4
99 413 m 4
 85 413 74 395 74 378 c 4
 74 364 81 352 99 352 c 4
 117 352 123 364 123 378 c 4
 123 395 113 413 99 413 c 4
EndSplineSet
Validated: 1
EndChar

StartChar: cent
Encoding: 162 162 106
Width: 603
VWidth: -12
Flags: HW
VStem: 26 171<69.6926 257.153> 271 188<54.0261 282> 310 109<-185.409 -123.515>
LayerCount: 2
Fore
SplineSet
459 282 m 1xc0
 458 215 454 136 446 50 c 1
 460 53 473 56 485 56 c 0
 522 56 545 34 547 -6 c 0
 547 -7 547 -9 547 -10 c 0
 547 -22 544 -39 528 -56 c 0
 507 -78 471 -94 429 -105 c 1
 426 -128 422 -151 419 -174 c 0
 417 -190 397 -197 376 -197 c 0
 347 -197 314 -183 310 -155 c 0xa0
 308 -144 307 -134 305 -123 c 1
 301 -123 296 -123 292 -123 c 0
 136 -123 47 -24 27 171 c 0
 26 178 26 185 26 194 c 0
 26 246 41 329 98 393 c 0
 142 442 202 472 277 480 c 1
 280 509 285 528 289 536 c 0
 298 550 317 555 341 555 c 0
 381 555 430 540 441 519 c 0
 446 510 451 491 454 464 c 1
 487 453 515 437 543 415 c 0
 566 397 576 368 576 342 c 0
 576 331 574 320 571 310 c 0
 561 282 539 265 513 265 c 0
 503 265 493 267 483 272 c 0
 475 276 467 279 459 282 c 1xc0
271 304 m 1xc0
 198 274 197 184 197 180 c 0
 197 132 206 25 288 16 c 1
 277 122 272 221 271 304 c 1xc0
EndSplineSet
Validated: 1
EndChar

StartChar: guillemotleft
Encoding: 171 171 108
Width: 703
VWidth: -12
Flags: HW
VStem: 26 193<129.345 218.281> 307 193<129.345 218.281>
LayerCount: 2
Fore
SplineSet
633 -100 m 0
 580 -100 308 39 307 165 c 0
 307 166 l 0
 307 225 351 282 387 319 c 0
 453 386 569 459 627 459 c 0
 646 459 657 451 663 445 c 0
 671 436 676 425 676 415 c 0
 676 383 641 348 598 305 c 0
 560 265 500 205 500 173 c 0
 500 142 548 98 586 62 c 0
 632 19 672 -18 672 -59 c 0
 672 -64 671 -68 670 -73 c 0
 667 -86 656 -100 633 -100 c 0
352 -100 m 0
 299 -100 27 39 26 165 c 0
 26 166 l 0
 26 225 70 282 106 319 c 0
 172 386 288 459 346 459 c 0
 365 459 376 451 382 445 c 0
 390 436 395 425 395 415 c 0
 395 383 360 348 317 305 c 0
 279 265 219 205 219 173 c 0
 219 142 267 98 305 62 c 0
 351 19 391 -18 391 -59 c 0
 391 -64 390 -68 389 -73 c 0
 386 -86 375 -100 352 -100 c 0
EndSplineSet
Validated: 1
EndChar

StartChar: guillemotright
Encoding: 187 187 109
Width: 703
VWidth: -12
Flags: HW
VStem: 26 193<129.345 218.281> 307 193<129.345 218.281>
LayerCount: 2
Fore
SplineSet
633 -100 m 0
 580 -100 308 39 307 165 c 0
 307 166 l 0
 307 225 351 282 387 319 c 0
 453 386 569 459 627 459 c 0
 646 459 657 451 663 445 c 0
 671 436 676 425 676 415 c 0
 676 383 641 348 598 305 c 0
 560 265 500 205 500 173 c 0
 500 142 548 98 586 62 c 0
 632 19 672 -18 672 -59 c 0
 672 -64 671 -68 670 -73 c 0
 667 -86 656 -100 633 -100 c 0
352 -100 m 0
 299 -100 27 39 26 165 c 0
 26 166 l 0
 26 225 70 282 106 319 c 0
 172 386 288 459 346 459 c 0
 365 459 376 451 382 445 c 0
 390 436 395 425 395 415 c 0
 395 383 360 348 317 305 c 0
 279 265 219 205 219 173 c 0
 219 142 267 98 305 62 c 0
 351 19 391 -18 391 -59 c 0
 391 -64 390 -68 389 -73 c 0
 386 -86 375 -100 352 -100 c 0
EndSplineSet
Validated: 1
EndChar

StartChar: periodcentered
Encoding: 183 183 110
Width: 228
VWidth: -12
Flags: HW
HStem: 265 164<60.4593 164.74>
VStem: 29 169<285.5 394.275>
LayerCount: 2
Fore
SplineSet
113 429 m 4
 162 429 198 378 198 333 c 4
 198 297 174 265 114 265 c 4
 53 265 29 300 29 336 c 4
 29 381 65 429 113 429 c 4
EndSplineSet
Validated: 1
EndChar
